<svg width="700" height="300" viewBox="0 0 700 300" fill="none" xmlns="http://www.w3.org/2000/svg">
<mask id="mask0_401_608" style="mask-type:alpha" maskUnits="userSpaceOnUse" x="0" y="0" width="700" height="300">
<rect width="700" height="300" fill="white"/>
</mask>
<g mask="url(#mask0_401_608)">
<rect x="-94" y="-96" width="983" height="501" fill="white"/>
<path d="M-109.484 63.7236C-117.915 62.6498 -126.455 62.6706 -134.889 63.7854C-135.373 66.0731 -135.737 68.3839 -135.98 70.7083C-144.941 72.1009 -153.652 74.7983 -161.832 78.7133C-163.358 76.936 -164.977 75.2391 -166.681 73.6297C-174.269 77.4763 -181.327 82.2851 -187.676 87.9353C-195.07 110.461 -193.976 134.859 -184.599 156.575C-179.319 158.434 -173.877 159.81 -168.342 160.687C-162.902 161.643 -157.39 162.153 -151.862 162.21C-150.519 158.372 -149.508 154.428 -148.839 150.421C-152.553 150.227 -156.24 149.695 -159.853 148.831L-158.04 146.359C-147.827 147.746 -137.423 146.883 -127.564 143.831C-117.706 140.778 -108.635 135.611 -100.993 128.695C-100.062 129.057 -99.0938 129.407 -98.0996 129.709C-100.625 132.449 -103.376 134.974 -106.325 137.256C-103.511 140.196 -100.434 142.876 -97.1319 145.263C-87.7667 139.011 -79.5627 131.189 -72.8884 122.147C-73.5626 118.763 -74.4077 115.416 -75.4206 112.118C-81.4612 92.8563 -93.3606 75.9507 -109.484 63.7236ZM-151.603 132.374C-154.478 133.086 -157.514 132.648 -160.059 131.155C-162.603 129.663 -164.453 127.234 -165.21 124.393C-165.788 123.042 -166.098 121.592 -166.123 120.123C-166.052 118.583 -165.654 117.074 -164.955 115.696C-164.347 114.329 -163.435 113.115 -162.288 112.147C-161.217 111.146 -159.948 110.379 -158.563 109.896C-157.121 109.448 -155.601 109.309 -154.103 109.49C-152.64 109.717 -151.244 110.255 -150.012 111.069C-148.718 111.849 -147.602 112.887 -146.734 114.119C-145.895 115.36 -145.31 116.753 -145.013 118.22C-144.021 120.914 -144.096 123.887 -145.222 126.537C-145.842 127.882 -146.726 129.092 -147.821 130.094C-148.917 131.097 -150.203 131.872 -151.603 132.374ZM-114.244 120.806C-115.683 121.183 -117.181 121.27 -118.652 121.062C-120.123 120.854 -121.535 120.356 -122.807 119.596C-125.352 118.078 -127.197 115.63 -127.949 112.774C-128.441 111.405 -128.655 109.951 -128.577 108.497C-128.561 106.99 -128.227 105.501 -127.596 104.128C-126.969 102.793 -126.069 101.6 -124.955 100.627C-123.838 99.6793 -122.544 98.9607 -121.147 98.5132C-119.732 98.0791 -118.244 97.9364 -116.773 98.0939C-115.271 98.2407 -113.82 98.7126 -112.522 99.4765C-111.225 100.24 -110.112 101.278 -109.263 102.516C-108.391 103.709 -107.786 105.074 -107.491 106.52C-106.511 109.286 -106.661 112.328 -107.909 114.994C-109.158 117.66 -111.405 119.738 -114.169 120.783L-114.244 120.806Z" fill="#415DEA"/>
<path d="M-73.6934 179.309C-82.1242 178.235 -90.664 178.256 -99.0983 179.371C-99.5827 181.659 -99.9468 183.969 -100.189 186.294C-109.15 187.687 -117.861 190.384 -126.041 194.299C-127.568 192.522 -129.186 190.825 -130.891 189.215C-138.479 193.062 -145.536 197.871 -151.885 203.521C-159.279 226.047 -158.186 250.445 -148.809 272.161C-143.528 274.019 -138.086 275.396 -132.551 276.273C-127.111 277.229 -121.599 277.738 -116.072 277.796C-114.728 273.957 -113.717 270.013 -113.049 266.006C-116.763 265.813 -120.45 265.281 -124.063 264.417L-122.249 261.945C-112.036 263.332 -101.632 262.469 -91.7738 259.416C-81.9156 256.364 -72.8443 251.197 -65.2025 244.28C-64.2715 244.643 -63.3032 244.993 -62.309 245.295C-64.8339 248.035 -67.5856 250.559 -70.5348 252.842C-67.7202 255.782 -64.6432 258.461 -61.3413 260.849C-51.9761 254.597 -43.7721 246.774 -37.0978 237.732C-37.772 234.349 -38.6171 231.002 -39.63 227.704C-45.6706 208.442 -57.57 191.536 -73.6934 179.309ZM-115.812 247.96C-118.687 248.671 -121.723 248.234 -124.268 246.741C-126.813 245.248 -128.663 242.82 -129.419 239.978C-129.997 238.628 -130.307 237.178 -130.332 235.708C-130.261 234.169 -129.863 232.66 -129.164 231.282C-128.556 229.914 -127.644 228.701 -126.497 227.732C-125.427 226.732 -124.158 225.965 -122.772 225.481C-121.33 225.033 -119.81 224.895 -118.313 225.076C-116.849 225.302 -115.453 225.841 -114.221 226.654C-112.927 227.435 -111.811 228.473 -110.943 229.704C-110.104 230.945 -109.52 232.339 -109.223 233.806C-108.231 236.5 -108.305 239.472 -109.431 242.122C-110.051 243.468 -110.935 244.677 -112.031 245.68C-113.127 246.682 -114.412 247.458 -115.812 247.96ZM-78.4534 236.392C-79.892 236.769 -81.3908 236.856 -82.8614 236.648C-84.332 236.44 -85.7447 235.941 -87.0163 235.182C-89.5615 233.664 -91.4064 231.216 -92.1584 228.359C-92.6507 226.99 -92.8643 225.536 -92.7867 224.082C-92.7708 222.575 -92.4366 221.087 -91.8058 219.714C-91.1784 218.378 -90.2788 217.186 -89.1643 216.213C-88.0474 215.265 -86.753 214.546 -85.3563 214.099C-83.9412 213.665 -82.4529 213.522 -80.9827 213.68C-79.48 213.826 -78.0291 214.298 -76.7317 215.062C-75.4343 215.826 -74.3218 216.864 -73.4723 218.102C-72.6001 219.294 -71.9958 220.659 -71.7002 222.106C-70.7202 224.872 -70.8704 227.914 -72.1188 230.58C-73.3671 233.246 -75.6143 235.324 -78.3787 236.369L-78.4534 236.392Z" fill="#415DEA"/>
<path d="M-37.9028 294.895C-46.3336 293.821 -54.8735 293.842 -63.3077 294.957C-63.7921 297.244 -64.1562 299.555 -64.3984 301.88C-73.3595 303.272 -82.0705 305.969 -90.2505 309.885C-91.7769 308.107 -93.3955 306.41 -95.0999 304.801C-102.688 308.648 -109.746 313.456 -116.094 319.106C-123.489 341.632 -122.395 366.03 -113.018 387.746C-107.738 389.605 -102.296 390.981 -96.7604 391.858C-91.3204 392.814 -85.8087 393.324 -80.281 393.381C-78.9377 389.543 -77.9265 385.599 -77.2583 381.592C-80.9722 381.399 -84.659 380.867 -88.2722 380.002L-86.4584 377.53C-76.2454 378.918 -65.8414 378.055 -55.9832 375.002C-46.1249 371.95 -37.0537 366.782 -29.4119 359.866C-28.4809 360.228 -27.5126 360.579 -26.5184 360.881C-29.0433 363.62 -31.795 366.145 -34.7442 368.428C-31.9296 371.367 -28.8526 374.047 -25.5507 376.434C-16.1855 370.182 -7.98149 362.36 -1.30717 353.318C-1.98136 349.934 -2.8265 346.587 -3.83937 343.289C-9.87998 324.028 -21.7794 307.122 -37.9028 294.895ZM-80.0214 363.545C-82.8963 364.257 -85.9328 363.819 -88.4776 362.327C-91.0223 360.834 -92.872 358.406 -93.6287 355.564C-94.2067 354.213 -94.5166 352.763 -94.5415 351.294C-94.4705 349.754 -94.0726 348.246 -93.3738 346.867C-92.7654 345.5 -91.8534 344.286 -90.7064 343.318C-89.636 342.317 -88.3671 341.55 -86.9818 341.067C-85.5397 340.619 -84.0194 340.481 -82.522 340.662C-81.0584 340.888 -79.6626 341.426 -78.4304 342.24C-77.1368 343.02 -76.0207 344.059 -75.1524 345.29C-74.3136 346.531 -73.7291 347.924 -73.4321 349.391C-72.4401 352.086 -72.5148 355.058 -73.6408 357.708C-74.2606 359.053 -75.1444 360.263 -76.2402 361.265C-77.336 362.268 -78.6216 363.043 -80.0214 363.545ZM-42.6628 351.977C-44.1014 352.354 -45.6002 352.441 -47.0708 352.233C-48.5414 352.025 -49.9541 351.527 -51.2257 350.767C-53.7709 349.249 -55.6158 346.802 -56.3678 343.945C-56.8601 342.576 -57.0737 341.122 -56.9961 339.668C-56.9802 338.161 -56.646 336.672 -56.0152 335.299C-55.3878 333.964 -54.4882 332.772 -53.3737 331.799C-52.2568 330.851 -50.9624 330.132 -49.5657 329.684C-48.1506 329.25 -46.6623 329.108 -45.1921 329.265C-43.6894 329.412 -42.2385 329.884 -40.9411 330.648C-39.6437 331.412 -38.5312 332.449 -37.6817 333.687C-36.8095 334.88 -36.2052 336.245 -35.9096 337.691C-34.9296 340.457 -35.0798 343.499 -36.3282 346.165C-37.5765 348.831 -39.8237 350.909 -42.5881 351.954L-42.6628 351.977Z" fill="#415DEA"/>
<path d="M-2.11219 410.48C-10.543 409.407 -19.0829 409.427 -27.5171 410.542C-28.0015 412.83 -28.3656 415.141 -28.6078 417.465C-37.5689 418.858 -46.2799 421.555 -54.4599 425.47C-55.9863 423.693 -57.605 421.996 -59.3093 420.387C-66.8977 424.233 -73.955 429.042 -80.3037 434.692C-87.6982 457.218 -86.6047 481.616 -77.2274 503.332C-71.9469 505.19 -66.5053 506.567 -60.9698 507.444C-55.5298 508.4 -50.0181 508.91 -44.4904 508.967C-43.1471 505.129 -42.1359 501.184 -41.4677 497.177C-45.1816 496.984 -48.8684 496.452 -52.4816 495.588L-50.6678 493.116C-40.4548 494.503 -30.0508 493.64 -20.1926 490.588C-10.3343 487.535 -1.2631 482.368 6.37874 475.452C7.30969 475.814 8.27799 476.164 9.27217 476.466C6.74728 479.206 3.99564 481.731 1.0464 484.013C3.86103 486.953 6.93803 489.633 10.2399 492.02C19.6051 485.768 27.8091 477.946 34.4834 468.904C33.8092 465.52 32.9641 462.173 31.9512 458.875C25.9106 439.613 14.0112 422.708 -2.11219 410.48ZM-44.2308 479.131C-47.1057 479.843 -50.1422 479.405 -52.687 477.912C-55.2317 476.42 -57.0814 473.991 -57.8381 471.15C-58.4161 469.799 -58.726 468.349 -58.7509 466.879C-58.6799 465.34 -58.282 463.831 -57.5832 462.453C-56.9748 461.085 -56.0628 459.872 -54.9158 458.903C-53.8454 457.903 -52.5765 457.136 -51.1912 456.653C-49.7491 456.204 -48.2288 456.066 -46.7314 456.247C-45.2678 456.473 -43.872 457.012 -42.6398 457.826C-41.3462 458.606 -40.2301 459.644 -39.3618 460.876C-38.523 462.116 -37.9385 463.51 -37.6415 464.977C-36.6495 467.671 -36.7242 470.643 -37.8502 473.294C-38.47 474.639 -39.3538 475.849 -40.4496 476.851C-41.5454 477.854 -42.831 478.629 -44.2308 479.131ZM-6.87221 467.563C-8.31084 467.94 -9.8096 468.027 -11.2802 467.819C-12.7508 467.611 -14.1635 467.113 -15.4351 466.353C-17.9803 464.835 -19.8252 462.387 -20.5772 459.531C-21.0695 458.161 -21.2831 456.708 -21.2055 455.254C-21.1896 453.746 -20.8554 452.258 -20.2246 450.885C-19.5972 449.549 -18.6976 448.357 -17.5831 447.384C-16.4662 446.436 -15.1718 445.718 -13.7751 445.27C-12.36 444.836 -10.8717 444.693 -9.40152 444.851C-7.8988 444.998 -6.44788 445.469 -5.15049 446.233C-3.85309 446.997 -2.74063 448.035 -1.8911 449.273C-1.01887 450.465 -0.414618 451.831 -0.11904 453.277C0.861026 456.043 0.710789 459.085 -0.537563 461.751C-1.78592 464.417 -4.03306 466.495 -6.79749 467.54L-6.87221 467.563Z" fill="#415DEA"/>
<path d="M33.6784 526.066C25.2476 524.992 16.7077 525.013 8.27346 526.128C7.78909 528.416 7.42505 530.726 7.18281 533.051C-1.77829 534.443 -10.4893 537.141 -18.6693 541.056C-20.1957 539.278 -21.8144 537.582 -23.5187 535.972C-31.1071 539.819 -38.1644 544.628 -44.5131 550.278C-51.9076 572.803 -50.8141 597.202 -41.4368 618.917C-36.1563 620.776 -30.7147 622.152 -25.1792 623.029C-19.7392 623.986 -14.2275 624.495 -8.69985 624.553C-7.35652 620.714 -6.34525 616.77 -5.67709 612.763C-9.39097 612.57 -13.0778 612.038 -16.691 611.174L-14.8772 608.701C-4.66419 610.089 5.73982 609.226 15.598 606.173C25.4562 603.121 34.5275 597.953 42.1694 591.037C43.1003 591.399 44.0686 591.75 45.0628 592.052C42.5379 594.792 39.7862 597.316 36.837 599.599C39.6516 602.538 42.7286 605.218 46.0305 607.606C55.3957 601.354 63.5997 593.531 70.274 584.489C69.5998 581.105 68.7547 577.758 67.7418 574.46C61.7012 555.199 49.8018 538.293 33.6784 526.066ZM-8.44021 594.717C-11.3151 595.428 -14.3516 594.991 -16.8963 593.498C-19.4411 592.005 -21.2908 589.577 -22.0475 586.735C-22.6255 585.384 -22.9355 583.935 -22.9603 582.465C-22.8893 580.925 -22.4914 579.417 -21.7926 578.038C-21.1842 576.671 -20.2721 575.457 -19.1252 574.489C-18.0548 573.488 -16.7859 572.722 -15.4006 572.238C-13.9585 571.79 -12.4382 571.652 -10.9408 571.833C-9.47719 572.059 -8.08144 572.598 -6.8492 573.411C-5.55563 574.191 -4.43955 575.23 -3.57119 576.461C-2.73239 577.702 -2.14786 579.095 -1.85087 580.563C-0.858948 583.257 -0.933545 586.229 -2.05963 588.879C-2.67937 590.225 -3.56318 591.434 -4.65899 592.437C-5.75479 593.439 -7.04044 594.214 -8.44021 594.717ZM28.9184 583.149C27.4798 583.525 25.981 583.612 24.5104 583.405C23.0398 583.197 21.6271 582.698 20.3555 581.938C17.8103 580.421 15.9654 577.973 15.2134 575.116C14.7211 573.747 14.5075 572.293 14.5851 570.839C14.601 569.332 14.9352 567.844 15.566 566.471C16.1934 565.135 17.093 563.943 18.2075 562.97C19.3244 562.022 20.6188 561.303 22.0155 560.856C23.4306 560.421 24.9189 560.279 26.3891 560.436C27.8918 560.583 29.3427 561.055 30.6401 561.819C31.9375 562.583 33.05 563.62 33.8995 564.859C34.7717 566.051 35.376 567.416 35.6716 568.863C36.6516 571.629 36.5014 574.67 35.253 577.337C34.0047 580.003 31.7575 582.081 28.9931 583.126L28.9184 583.149Z" fill="#415DEA"/>
<path d="M33.804 19.3551C25.3731 18.2813 16.8333 18.3021 8.399 19.4169C7.91464 21.7046 7.55059 24.0154 7.30836 26.3398C-1.65275 27.7324 -10.3638 30.4298 -18.5438 34.3448C-20.0702 32.5675 -21.6888 30.8706 -23.3932 29.2612C-30.9816 33.1078 -38.0388 37.9166 -44.3876 43.5667C-51.782 66.0925 -50.6885 90.4906 -41.3112 112.206C-36.0308 114.065 -30.5891 115.441 -25.0537 116.318C-19.6137 117.275 -14.102 117.784 -8.5743 117.842C-7.23097 114.003 -6.2197 110.059 -5.55154 106.052C-9.26542 105.859 -12.9522 105.327 -16.5655 104.463L-14.7517 101.991C-4.53866 103.378 5.86537 102.515 15.7236 99.4623C25.5818 96.4098 34.6531 91.2424 42.2949 84.3263C43.2258 84.6884 44.1941 85.039 45.1883 85.3409C42.6634 88.0808 39.9118 90.6054 36.9625 92.8879C39.7772 95.8275 42.8542 98.5073 46.156 100.895C55.5213 94.6427 63.7252 86.8202 70.3996 77.7782C69.7254 74.3945 68.8802 71.0474 67.8674 67.7495C61.8268 48.4878 49.9274 31.5822 33.804 19.3551ZM-8.31467 88.0057C-11.1896 88.7172 -14.226 88.2796 -16.7708 86.787C-19.3155 85.2943 -21.1652 82.8659 -21.9219 80.0242C-22.5 78.6736 -22.8099 77.2237 -22.8347 75.7541C-22.7638 74.2144 -22.3658 72.7059 -21.6671 71.3276C-21.0586 69.9601 -20.1466 68.7465 -18.9996 67.7781C-17.9292 66.7775 -16.6603 66.0107 -15.275 65.5272C-13.8329 65.079 -12.3126 64.9408 -10.8152 65.1218C-9.35164 65.3482 -7.9559 65.8867 -6.72366 66.7004C-5.43008 67.4804 -4.31399 68.5188 -3.44563 69.7503C-2.60683 70.991 -2.02231 72.3846 -1.72532 73.8517C-0.733394 76.5459 -0.808015 79.5181 -1.9341 82.1682C-2.55384 83.5136 -3.43764 84.7232 -4.53345 85.7257C-5.62925 86.7283 -6.9149 87.5035 -8.31467 88.0057ZM29.0439 76.4377C27.6053 76.8144 26.1065 76.9014 24.6359 76.6936C23.1654 76.4857 21.7527 75.9872 20.4811 75.2275C17.9358 73.7097 16.0909 71.262 15.339 68.4052C14.8466 67.0361 14.6331 65.5824 14.7106 64.1283C14.7266 62.6211 15.0607 61.1327 15.6915 59.7596C16.3189 58.4241 17.2185 57.2319 18.3331 56.2588C19.45 55.3108 20.7444 54.5922 22.141 54.1447C23.5562 53.7105 25.0444 53.5678 26.5146 53.7254C28.0173 53.8722 29.4683 54.3441 30.7657 55.108C32.063 55.8719 33.1755 56.9094 34.025 58.1477C34.8973 59.34 35.5015 60.7053 35.7971 62.1517C36.7772 64.9177 36.6269 67.9595 35.3786 70.6256C34.1302 73.2916 31.8831 75.3697 29.1186 76.4146L29.0439 76.4377Z" fill="#415DEA"/>
<path d="M69.5946 134.941C61.1637 133.867 52.6239 133.888 44.1896 135.002C43.7052 137.29 43.3412 139.601 43.099 141.925C34.1378 143.318 25.4268 146.015 17.2468 149.93C15.7204 148.153 14.1018 146.456 12.3974 144.847C4.80904 148.693 -2.24822 153.502 -8.597 159.152C-15.9914 181.678 -14.8979 206.076 -5.52063 227.792C-0.240156 229.651 5.20147 231.027 10.7369 231.904C16.1769 232.86 21.6886 233.37 27.2163 233.427C28.5596 229.589 29.5709 225.645 30.2391 221.638C26.5252 221.445 22.8384 220.912 19.2251 220.048L21.0389 217.576C31.2519 218.964 41.656 218.1 51.5142 215.048C61.3724 211.995 70.4436 206.828 78.0855 199.912C79.0164 200.274 79.9847 200.625 80.9789 200.926C78.454 203.666 75.7024 206.191 72.7531 208.473C75.5678 211.413 78.6448 214.093 81.9466 216.48C91.3119 210.228 99.5158 202.406 106.19 193.364C105.516 189.98 104.671 186.633 103.658 183.335C97.6174 164.073 85.718 147.168 69.5946 134.941ZM27.4759 203.591C24.601 204.303 21.5646 203.865 19.0198 202.373C16.4751 200.88 14.6254 198.452 13.8687 195.61C13.2906 194.259 12.9807 192.809 12.9559 191.34C13.0268 189.8 13.4248 188.291 14.1235 186.913C14.732 185.546 15.644 184.332 16.791 183.364C17.8614 182.363 19.1303 181.596 20.5156 181.113C21.9576 180.665 23.478 180.526 24.9754 180.707C26.439 180.934 27.8347 181.472 29.0669 182.286C30.3605 183.066 31.4766 184.104 32.345 185.336C33.1838 186.577 33.7683 187.97 34.0653 189.437C35.0572 192.132 34.9826 195.104 33.8565 197.754C33.2368 199.099 32.353 200.309 31.2572 201.311C30.1613 202.314 28.8757 203.089 27.4759 203.591ZM64.8345 192.023C63.3959 192.4 61.8971 192.487 60.4265 192.279C58.956 192.071 57.5433 191.573 56.2717 190.813C53.7264 189.295 51.8815 186.848 51.1296 183.991C50.6372 182.622 50.4237 181.168 50.5012 179.714C50.5172 178.207 50.8513 176.718 51.4821 175.345C52.1095 174.01 53.0091 172.817 54.1237 171.844C55.2406 170.896 56.535 170.178 57.9316 169.73C59.3468 169.296 60.835 169.153 62.3052 169.311C63.8079 169.458 65.2589 169.93 66.5563 170.694C67.8536 171.458 68.9661 172.495 69.8156 173.733C70.6879 174.926 71.2921 176.291 71.5877 177.737C72.5678 180.503 72.4175 183.545 71.1692 186.211C69.9208 188.877 67.6737 190.955 64.9092 192L64.8345 192.023Z" fill="#415DEA"/>
<path d="M105.385 250.526C96.9543 249.453 88.4145 249.473 79.9802 250.588C79.4958 252.876 79.1318 255.187 78.8896 257.511C69.9284 258.904 61.2174 261.601 53.0374 265.516C51.511 263.739 49.8924 262.042 48.188 260.432C40.5996 264.279 33.5424 269.088 27.1936 274.738C19.7992 297.264 20.8927 321.662 30.27 343.378C35.5504 345.236 40.9921 346.613 46.5275 347.49C51.9675 348.446 57.4792 348.955 63.0069 349.013C64.3502 345.174 65.3615 341.23 66.0297 337.223C62.3158 337.03 58.629 336.498 55.0157 335.634L56.8295 333.162C67.0425 334.549 77.4466 333.686 87.3048 330.634C97.163 327.581 106.234 322.414 113.876 315.497C114.807 315.86 115.775 316.21 116.77 316.512C114.245 319.252 111.493 321.777 108.544 324.059C111.358 326.999 114.435 329.678 117.737 332.066C127.102 325.814 135.306 317.991 141.981 308.949C141.307 305.566 140.461 302.219 139.449 298.921C133.408 279.659 121.509 262.753 105.385 250.526ZM63.2665 319.177C60.3916 319.888 57.3551 319.451 54.8104 317.958C52.2656 316.466 50.416 314.037 49.6593 311.195C49.0812 309.845 48.7713 308.395 48.7465 306.925C48.8174 305.386 49.2154 303.877 49.9141 302.499C50.5225 301.131 51.4346 299.918 52.5816 298.949C53.652 297.949 54.9209 297.182 56.3062 296.698C57.7482 296.25 59.2686 296.112 60.766 296.293C62.2296 296.519 63.6253 297.058 64.8575 297.872C66.1511 298.652 67.2672 299.69 68.1356 300.922C68.9744 302.162 69.5589 303.556 69.8559 305.023C70.8478 307.717 70.7732 310.689 69.6471 313.339C69.0274 314.685 68.1436 315.894 67.0478 316.897C65.9519 317.899 64.6663 318.675 63.2665 319.177ZM100.625 307.609C99.1865 307.986 97.6877 308.073 96.2172 307.865C94.7466 307.657 93.3339 307.158 92.0623 306.399C89.517 304.881 87.6721 302.433 86.9202 299.576C86.4278 298.207 86.2143 296.754 86.2918 295.3C86.3078 293.792 86.6419 292.304 87.2727 290.931C87.9001 289.595 88.7997 288.403 89.9143 287.43C91.0312 286.482 92.3255 285.763 93.7222 285.316C95.1373 284.882 96.6256 284.739 98.0958 284.897C99.5985 285.043 101.049 285.515 102.347 286.279C103.644 287.043 104.757 288.081 105.606 289.319C106.478 290.511 107.083 291.877 107.378 293.323C108.358 296.089 108.208 299.131 106.96 301.797C105.711 304.463 103.464 306.541 100.7 307.586L100.625 307.609Z" fill="#415DEA"/>
<path d="M141.176 366.112C132.745 365.038 124.205 365.059 115.771 366.174C115.286 368.461 114.922 370.772 114.68 373.097C105.719 374.489 97.008 377.187 88.828 381.102C87.3016 379.324 85.683 377.627 83.9786 376.018C76.3902 379.865 69.333 384.673 62.9842 390.324C55.5898 412.849 56.6833 437.247 66.0606 458.963C71.341 460.822 76.7827 462.198 82.3181 463.075C87.7581 464.032 93.2698 464.541 98.7975 464.598C100.141 460.76 101.152 456.816 101.82 452.809C98.1064 452.616 94.4196 452.084 90.8063 451.219L92.6201 448.747C102.833 450.135 113.237 449.272 123.095 446.219C132.954 443.167 142.025 437.999 149.667 431.083C150.598 431.445 151.566 431.796 152.56 432.098C150.035 434.838 147.284 437.362 144.334 439.645C147.149 442.584 150.226 445.264 153.528 447.651C162.893 441.4 171.097 433.577 177.771 424.535C177.097 421.151 176.252 417.804 175.239 414.506C169.199 395.245 157.299 378.339 141.176 366.112ZM99.0571 434.762C96.1822 435.474 93.1457 435.036 90.601 433.544C88.0562 432.051 86.2066 429.623 85.4499 426.781C84.8718 425.43 84.5619 423.981 84.5371 422.511C84.608 420.971 85.006 419.463 85.7047 418.084C86.3131 416.717 87.2252 415.503 88.3722 414.535C89.4426 413.534 90.7115 412.767 92.0968 412.284C93.5388 411.836 95.0592 411.698 96.5566 411.879C98.0202 412.105 99.4159 412.643 100.648 413.457C101.942 414.237 103.058 415.276 103.926 416.507C104.765 417.748 105.349 419.141 105.646 420.609C106.638 423.303 106.564 426.275 105.438 428.925C104.818 430.27 103.934 431.48 102.838 432.483C101.743 433.485 100.457 434.26 99.0571 434.762ZM136.416 423.195C134.977 423.571 133.478 423.658 132.008 423.45C130.537 423.243 129.124 422.744 127.853 421.984C125.308 420.466 123.463 418.019 122.711 415.162C122.218 413.793 122.005 412.339 122.082 410.885C122.098 409.378 122.433 407.89 123.063 406.516C123.691 405.181 124.59 403.989 125.705 403.016C126.822 402.068 128.116 401.349 129.513 400.902C130.928 400.467 132.416 400.325 133.886 400.482C135.389 400.629 136.84 401.101 138.137 401.865C139.435 402.629 140.547 403.666 141.397 404.905C142.269 406.097 142.873 407.462 143.169 408.909C144.149 411.674 143.999 414.716 142.75 417.382C141.502 420.048 139.255 422.127 136.49 423.171L136.416 423.195Z" fill="#415DEA"/>
<path d="M176.966 481.697C168.536 480.624 159.996 480.645 151.561 481.759C151.077 484.047 150.713 486.358 150.471 488.682C141.51 490.075 132.799 492.772 124.619 496.687C123.092 494.91 121.474 493.213 119.769 491.604C112.181 495.45 105.124 500.259 98.7748 505.909C91.3804 528.435 92.4739 552.833 101.851 574.549C107.132 576.408 112.573 577.784 118.109 578.661C123.549 579.617 129.06 580.127 134.588 580.184C135.931 576.346 136.943 572.402 137.611 568.395C133.897 568.201 130.21 567.669 126.597 566.805L128.411 564.333C138.624 565.72 149.028 564.857 158.886 561.805C168.744 558.752 177.815 553.585 185.457 546.669C186.388 547.031 187.357 547.381 188.351 547.683C185.826 550.423 183.074 552.948 180.125 555.23C182.94 558.17 186.017 560.85 189.318 563.237C198.684 556.985 206.888 549.163 213.562 540.121C212.888 536.737 212.043 533.39 211.03 530.092C204.989 510.83 193.09 493.925 176.966 481.697ZM134.848 550.348C131.973 551.06 128.936 550.622 126.392 549.129C123.847 547.637 121.997 545.208 121.24 542.367C120.662 541.016 120.352 539.566 120.328 538.096C120.399 536.557 120.797 535.048 121.495 533.67C122.104 532.303 123.016 531.089 124.163 530.121C125.233 529.12 126.502 528.353 127.887 527.87C129.329 527.421 130.85 527.283 132.347 527.464C133.811 527.691 135.206 528.229 136.439 529.043C137.732 529.823 138.848 530.861 139.717 532.093C140.556 533.333 141.14 534.727 141.437 536.194C142.429 538.888 142.354 541.861 141.228 544.511C140.609 545.856 139.725 547.066 138.629 548.068C137.533 549.071 136.247 549.846 134.848 550.348ZM172.206 538.78C170.768 539.157 169.269 539.244 167.798 539.036C166.328 538.828 164.915 538.33 163.643 537.57C161.098 536.052 159.253 533.604 158.501 530.748C158.009 529.379 157.795 527.925 157.873 526.471C157.889 524.963 158.223 523.475 158.854 522.102C159.481 520.767 160.381 519.574 161.495 518.601C162.612 517.653 163.907 516.935 165.303 516.487C166.719 516.053 168.207 515.91 169.677 516.068C171.18 516.215 172.631 516.686 173.928 517.45C175.225 518.214 176.338 519.252 177.187 520.49C178.06 521.682 178.664 523.048 178.96 524.494C179.94 527.26 179.789 530.302 178.541 532.968C177.293 535.634 175.045 537.712 172.281 538.757L172.206 538.78Z" fill="#415DEA"/>
<path d="M177.092 -25.0135C168.661 -26.0872 160.121 -26.0664 151.687 -24.9516C151.203 -22.6639 150.839 -20.3532 150.596 -18.0287C141.635 -16.6361 132.924 -13.9388 124.744 -10.0237C123.218 -11.801 121.599 -13.4979 119.895 -15.1073C112.306 -11.2607 105.249 -6.45193 98.9003 -0.801769C91.5059 21.724 92.5994 46.1221 101.977 67.8379C107.257 69.6966 112.699 71.073 118.234 71.95C123.674 72.9063 129.186 73.4157 134.714 73.4731C136.057 69.6347 137.068 65.6906 137.736 61.6837C134.023 61.4904 130.336 60.9584 126.722 60.0942L128.536 57.622C138.749 59.0095 149.153 58.1464 159.012 55.0938C168.87 52.0413 177.941 46.8739 185.583 39.9578C186.514 40.3199 187.482 40.6705 188.476 40.9724C185.951 43.7123 183.2 46.2368 180.25 48.5193C183.065 51.459 186.142 54.1388 189.444 56.5261C198.809 50.2742 207.013 42.4517 213.688 33.4097C213.013 30.026 212.168 26.6789 211.155 23.381C205.115 4.11931 193.215 -12.7863 177.092 -25.0135ZM134.973 43.6372C132.098 44.3487 129.062 43.9111 126.517 42.4184C123.972 40.9258 122.123 38.4974 121.366 35.6557C120.788 34.3051 120.478 32.8552 120.453 31.3856C120.524 29.8459 120.922 28.3374 121.621 26.959C122.229 25.5916 123.141 24.378 124.288 23.4095C125.359 22.409 126.628 21.6422 128.013 21.1587C129.455 20.7105 130.975 20.5723 132.473 20.7533C133.936 20.9797 135.332 21.5181 136.564 22.3319C137.858 23.1119 138.974 24.1503 139.842 25.3818C140.681 26.6225 141.266 28.0161 141.563 29.4832C142.555 32.1774 142.48 35.1495 141.354 37.7997C140.734 39.1451 139.85 40.3547 138.754 41.3572C137.659 42.3598 136.373 43.135 134.973 43.6372ZM172.332 32.0692C170.893 32.4459 169.395 32.5329 167.924 32.325C166.453 32.1172 165.041 31.6187 163.769 30.8589C161.224 29.3412 159.379 26.8934 158.627 24.0367C158.135 22.6676 157.921 21.2139 157.999 19.7598C158.015 18.2526 158.349 16.7642 158.979 15.3911C159.607 14.0556 160.506 12.8634 161.621 11.8903C162.738 10.9423 164.032 10.2237 165.429 9.77622C166.844 9.34203 168.332 9.19933 169.803 9.35689C171.305 9.50365 172.756 9.97554 174.054 10.7395C175.351 11.5034 176.463 12.5409 177.313 13.7792C178.185 14.9715 178.789 16.3368 179.085 17.7832C180.065 20.5491 179.915 23.591 178.667 26.2571C177.418 28.9231 175.171 31.0012 172.407 32.0461L172.332 32.0692Z" fill="#415DEA"/>
<path d="M212.882 90.5721C204.452 89.4984 195.912 89.5192 187.478 90.634C186.993 92.9217 186.629 95.2325 186.387 97.5569C177.426 98.9495 168.715 101.647 160.535 105.562C159.008 103.785 157.39 102.088 155.685 100.478C148.097 104.325 141.04 109.134 134.691 114.784C127.297 137.31 128.39 161.708 137.767 183.423C143.048 185.282 148.489 186.659 154.025 187.536C159.465 188.492 164.977 189.001 170.504 189.059C171.848 185.22 172.859 181.276 173.527 177.269C169.813 177.076 166.126 176.544 162.513 175.68L164.327 173.208C174.54 174.595 184.944 173.732 194.802 170.679C204.66 167.627 213.732 162.46 221.373 155.543C222.304 155.905 223.273 156.256 224.267 156.558C221.742 159.298 218.99 161.822 216.041 164.105C218.856 167.045 221.933 169.724 225.235 172.112C234.6 165.86 242.804 158.037 249.478 148.995C248.804 145.612 247.959 142.264 246.946 138.967C240.905 119.705 229.006 102.799 212.882 90.5721ZM170.764 159.223C167.889 159.934 164.852 159.497 162.308 158.004C159.763 156.511 157.913 154.083 157.157 151.241C156.579 149.891 156.269 148.441 156.244 146.971C156.315 145.432 156.713 143.923 157.411 142.545C158.02 141.177 158.932 139.964 160.079 138.995C161.149 137.995 162.418 137.228 163.804 136.744C165.246 136.296 166.766 136.158 168.263 136.339C169.727 136.565 171.123 137.104 172.355 137.917C173.648 138.698 174.765 139.736 175.633 140.967C176.472 142.208 177.056 143.602 177.353 145.069C178.345 147.763 178.271 150.735 177.144 153.385C176.525 154.731 175.641 155.94 174.545 156.943C173.449 157.945 172.164 158.721 170.764 159.223ZM208.122 147.655C206.684 148.032 205.185 148.118 203.715 147.911C202.244 147.703 200.831 147.204 199.56 146.445C197.014 144.927 195.169 142.479 194.418 139.622C193.925 138.253 193.712 136.799 193.789 135.345C193.805 133.838 194.139 132.35 194.77 130.977C195.397 129.641 196.297 128.449 197.412 127.476C198.529 126.528 199.823 125.809 201.22 125.362C202.635 124.928 204.123 124.785 205.593 124.942C207.096 125.089 208.547 125.561 209.844 126.325C211.142 127.089 212.254 128.126 213.104 129.365C213.976 130.557 214.58 131.922 214.876 133.369C215.856 136.135 215.705 139.177 214.457 141.843C213.209 144.509 210.962 146.587 208.197 147.632L208.122 147.655Z" fill="#415DEA"/>
<path d="M248.673 206.158C240.242 205.084 231.702 205.105 223.268 206.22C222.784 208.507 222.42 210.818 222.177 213.143C213.216 214.535 204.505 217.232 196.325 221.148C194.799 219.37 193.18 217.673 191.476 216.064C183.888 219.91 176.83 224.719 170.482 230.369C163.087 252.895 164.181 277.293 173.558 299.009C178.838 300.868 184.28 302.244 189.815 303.121C195.255 304.077 200.767 304.587 206.295 304.644C207.638 300.806 208.649 296.862 209.318 292.855C205.604 292.662 201.917 292.13 198.304 291.265L200.117 288.793C210.33 290.181 220.735 289.318 230.593 286.265C240.451 283.212 249.522 278.045 257.164 271.129C258.095 271.491 259.063 271.842 260.057 272.144C257.533 274.883 254.781 277.408 251.832 279.691C254.646 282.63 257.723 285.31 261.025 287.697C270.39 281.445 278.594 273.623 285.269 264.581C284.595 261.197 283.749 257.85 282.737 254.552C276.696 235.291 264.797 218.385 248.673 206.158ZM206.554 274.808C203.68 275.52 200.643 275.082 198.098 273.59C195.554 272.097 193.704 269.669 192.947 266.827C192.369 265.476 192.059 264.026 192.034 262.557C192.105 261.017 192.503 259.509 193.202 258.13C193.81 256.763 194.723 255.549 195.869 254.581C196.94 253.58 198.209 252.813 199.594 252.33C201.036 251.882 202.556 251.744 204.054 251.925C205.517 252.151 206.913 252.689 208.145 253.503C209.439 254.283 210.555 255.322 211.423 256.553C212.262 257.794 212.847 259.187 213.144 260.654C214.136 263.349 214.061 266.321 212.935 268.971C212.315 270.316 211.432 271.526 210.336 272.528C209.24 273.531 207.954 274.306 206.554 274.808ZM243.913 263.24C242.474 263.617 240.976 263.704 239.505 263.496C238.035 263.288 236.622 262.79 235.35 262.03C232.805 260.512 230.96 258.065 230.208 255.208C229.716 253.839 229.502 252.385 229.58 250.931C229.596 249.424 229.93 247.935 230.561 246.562C231.188 245.227 232.088 244.035 233.202 243.061C234.319 242.114 235.614 241.395 237.01 240.947C238.425 240.513 239.914 240.371 241.384 240.528C242.886 240.675 244.337 241.147 245.635 241.911C246.932 242.675 248.045 243.712 248.894 244.95C249.766 246.143 250.371 247.508 250.666 248.954C251.646 251.72 251.496 254.762 250.248 257.428C248.999 260.094 246.752 262.172 243.988 263.217L243.913 263.24Z" fill="#415DEA"/>
<path d="M284.464 321.743C276.033 320.67 267.493 320.69 259.059 321.805C258.574 324.093 258.21 326.404 257.968 328.728C249.007 330.121 240.296 332.818 232.116 336.733C230.59 334.956 228.971 333.259 227.267 331.649C219.678 335.496 212.621 340.305 206.272 345.955C198.878 368.481 199.971 392.879 209.348 414.595C214.629 416.453 220.071 417.83 225.606 418.707C231.046 419.663 236.558 420.172 242.085 420.23C243.429 416.392 244.44 412.447 245.108 408.44C241.394 408.247 237.708 407.715 234.094 406.851L235.908 404.379C246.121 405.766 256.525 404.903 266.383 401.851C276.242 398.798 285.313 393.631 292.955 386.715C293.886 387.077 294.854 387.427 295.848 387.729C293.323 390.469 290.572 392.994 287.622 395.276C290.437 398.216 293.514 400.896 296.816 403.283C306.181 397.031 314.385 389.208 321.059 380.167C320.385 376.783 319.54 373.436 318.527 370.138C312.487 350.876 300.587 333.97 284.464 321.743ZM242.345 390.394C239.47 391.106 236.434 390.668 233.889 389.175C231.344 387.683 229.494 385.254 228.738 382.412C228.16 381.062 227.85 379.612 227.825 378.142C227.896 376.603 228.294 375.094 228.993 373.716C229.601 372.348 230.513 371.135 231.66 370.166C232.731 369.166 233.999 368.399 235.385 367.916C236.827 367.467 238.347 367.329 239.845 367.51C241.308 367.736 242.704 368.275 243.936 369.089C245.23 369.869 246.346 370.907 247.214 372.139C248.053 373.379 248.637 374.773 248.934 376.24C249.926 378.934 249.852 381.906 248.726 384.557C248.106 385.902 247.222 387.112 246.126 388.114C245.03 389.117 243.745 389.892 242.345 390.394ZM279.704 378.826C278.265 379.203 276.766 379.29 275.296 379.082C273.825 378.874 272.412 378.376 271.141 377.616C268.596 376.098 266.751 373.65 265.999 370.793C265.506 369.424 265.293 367.971 265.37 366.517C265.386 365.009 265.72 363.521 266.351 362.148C266.979 360.812 267.878 359.62 268.993 358.647C270.11 357.699 271.404 356.981 272.801 356.533C274.216 356.099 275.704 355.956 277.174 356.114C278.677 356.26 280.128 356.732 281.425 357.496C282.723 358.26 283.835 359.298 284.685 360.536C285.557 361.728 286.161 363.094 286.457 364.54C287.437 367.306 287.287 370.348 286.038 373.014C284.79 375.68 282.543 377.758 279.778 378.803L279.704 378.826Z" fill="#415DEA"/>
<path d="M320.254 437.329C311.823 436.255 303.284 436.276 294.849 437.391C294.365 439.678 294.001 441.989 293.759 444.314C284.798 445.706 276.087 448.404 267.907 452.319C266.38 450.541 264.762 448.845 263.057 447.235C255.469 451.082 248.412 455.891 242.063 461.541C234.668 484.066 235.762 508.464 245.139 530.18C250.42 532.039 255.861 533.415 261.397 534.292C266.837 535.249 272.348 535.758 277.876 535.816C279.219 531.977 280.231 528.033 280.899 524.026C277.185 523.833 273.498 523.301 269.885 522.437L271.699 519.964C281.912 521.352 292.316 520.489 302.174 517.436C312.032 514.384 321.103 509.216 328.745 502.3C329.676 502.662 330.644 503.013 331.639 503.315C329.114 506.055 326.362 508.579 323.413 510.862C326.228 513.801 329.305 516.481 332.606 518.868C341.972 512.617 350.176 504.794 356.85 495.752C356.176 492.368 355.331 489.021 354.318 485.723C348.277 466.462 336.378 449.556 320.254 437.329ZM278.136 505.98C275.261 506.691 272.224 506.254 269.68 504.761C267.135 503.268 265.285 500.84 264.528 497.998C263.95 496.647 263.64 495.198 263.616 493.728C263.687 492.188 264.084 490.68 264.783 489.301C265.392 487.934 266.304 486.72 267.451 485.752C268.521 484.751 269.79 483.985 271.175 483.501C272.617 483.053 274.138 482.915 275.635 483.096C277.099 483.322 278.494 483.861 279.727 484.674C281.02 485.454 282.136 486.493 283.005 487.724C283.843 488.965 284.428 490.358 284.725 491.826C285.717 494.52 285.642 497.492 284.516 500.142C283.897 501.488 283.013 502.697 281.917 503.7C280.821 504.702 279.535 505.477 278.136 505.98ZM315.494 494.412C314.056 494.788 312.557 494.875 311.086 494.667C309.616 494.46 308.203 493.961 306.931 493.201C304.386 491.684 302.541 489.236 301.789 486.379C301.297 485.01 301.083 483.556 301.161 482.102C301.177 480.595 301.511 479.107 302.142 477.734C302.769 476.398 303.669 475.206 304.783 474.233C305.9 473.285 307.195 472.566 308.591 472.119C310.007 471.684 311.495 471.542 312.965 471.699C314.468 471.846 315.919 472.318 317.216 473.082C318.513 473.846 319.626 474.883 320.475 476.122C321.348 477.314 321.952 478.679 322.247 480.126C323.228 482.892 323.077 485.933 321.829 488.6C320.581 491.266 318.333 493.344 315.569 494.389L315.494 494.412Z" fill="#415DEA"/>
<path d="M320.38 -69.382C311.949 -70.4557 303.409 -70.4349 294.975 -69.3202C294.491 -67.0325 294.127 -64.7217 293.884 -62.3972C284.923 -61.0046 276.212 -58.3073 268.032 -54.3922C266.506 -56.1695 264.887 -57.8664 263.183 -59.4759C255.594 -55.6292 248.537 -50.8204 242.188 -45.1703C234.794 -22.6445 235.887 1.75357 245.265 23.4694C250.545 25.3281 255.987 26.7045 261.522 27.5815C266.962 28.5377 272.474 29.0472 278.002 29.1046C279.345 25.2662 280.356 21.3221 281.024 17.3151C277.31 17.1219 273.624 16.5898 270.01 15.7256L271.824 13.2535C282.037 14.641 292.441 13.7778 302.299 10.7253C312.158 7.67274 321.229 2.5054 328.871 -4.41075C329.802 -4.04862 330.77 -3.69805 331.764 -3.39615C329.239 -0.656243 326.488 1.86834 323.538 4.15084C326.353 7.09047 329.43 9.77026 332.732 12.1576C342.097 5.90568 350.301 -1.91686 356.975 -10.9588C356.301 -14.3425 355.456 -17.6896 354.443 -20.9875C348.403 -40.2492 336.503 -57.1549 320.38 -69.382ZM278.261 -0.731356C275.386 -0.0198004 272.35 -0.457425 269.805 -1.95007C267.26 -3.44272 265.411 -5.87111 264.654 -8.71282C264.076 -10.0634 263.766 -11.5133 263.741 -12.9829C263.812 -14.5226 264.21 -16.0312 264.909 -17.4095C265.517 -18.7769 266.429 -19.9905 267.576 -20.959C268.647 -21.9595 269.916 -22.7263 271.301 -23.2098C272.743 -23.658 274.263 -23.7962 275.761 -23.6152C277.224 -23.3889 278.62 -22.8504 279.852 -22.0366C281.146 -21.2566 282.262 -20.2182 283.13 -18.9867C283.969 -17.746 284.554 -16.3524 284.851 -14.8853C285.842 -12.1911 285.768 -9.21897 284.642 -6.5688C284.022 -5.22339 283.138 -4.01381 282.042 -3.01128C280.947 -2.00875 279.661 -1.23355 278.261 -0.731356ZM315.62 -12.2993C314.181 -11.9226 312.682 -11.8356 311.212 -12.0435C309.741 -12.2513 308.329 -12.7498 307.057 -13.5096C304.512 -15.0273 302.667 -17.4751 301.915 -20.3318C301.423 -21.7009 301.209 -23.1546 301.287 -24.6087C301.302 -26.1159 301.637 -27.6043 302.267 -28.9774C302.895 -30.3129 303.794 -31.5051 304.909 -32.4782C306.026 -33.4262 307.32 -34.1448 308.717 -34.5923C310.132 -35.0265 311.62 -35.1692 313.09 -35.0116C314.593 -34.8648 316.044 -34.393 317.342 -33.6291C318.639 -32.8651 319.751 -31.8276 320.601 -30.5893C321.473 -29.397 322.077 -28.0317 322.373 -26.5853C323.353 -23.8194 323.203 -20.7775 321.954 -18.1114C320.706 -15.4454 318.459 -13.3673 315.695 -12.3224L315.62 -12.2993Z" fill="#415DEA"/>
<path d="M356.17 46.2036C347.74 45.1299 339.2 45.1507 330.765 46.2654C330.281 48.5532 329.917 50.8639 329.675 53.1884C320.714 54.581 312.003 57.2783 303.823 61.1934C302.296 59.4161 300.678 57.7192 298.973 56.1098C291.385 59.9564 284.328 64.7652 277.979 70.4153C270.584 92.9411 271.678 117.339 281.055 139.055C286.336 140.914 291.777 142.29 297.313 143.167C302.753 144.123 308.265 144.633 313.792 144.69C315.136 140.852 316.147 136.908 316.815 132.901C313.101 132.708 309.414 132.175 305.801 131.311L307.615 128.839C317.828 130.227 328.232 129.363 338.09 126.311C347.948 123.258 357.02 118.091 364.661 111.175C365.592 111.537 366.561 111.888 367.555 112.189C365.03 114.929 362.278 117.454 359.329 119.736C362.144 122.676 365.221 125.356 368.523 127.743C377.888 121.491 386.092 113.669 392.766 104.627C392.092 101.243 391.247 97.896 390.234 94.5981C384.193 75.3364 372.294 58.4308 356.17 46.2036ZM314.052 114.854C311.177 115.566 308.14 115.128 305.596 113.636C303.051 112.143 301.201 109.714 300.445 106.873C299.867 105.522 299.557 104.072 299.532 102.603C299.603 101.063 300.001 99.5545 300.699 98.1761C301.308 96.8087 302.22 95.5951 303.367 94.6266C304.437 93.6261 305.706 92.8593 307.091 92.3758C308.534 91.9276 310.054 91.7894 311.551 91.9704C313.015 92.1968 314.411 92.7352 315.643 93.549C316.936 94.329 318.052 95.3674 318.921 96.5989C319.76 97.8396 320.344 99.2332 320.641 100.7C321.633 103.395 321.558 106.367 320.432 109.017C319.813 110.362 318.929 111.572 317.833 112.574C316.737 113.577 315.452 114.352 314.052 114.854ZM351.41 103.286C349.972 103.663 348.473 103.75 347.002 103.542C345.532 103.334 344.119 102.836 342.848 102.076C340.302 100.558 338.457 98.1105 337.705 95.2538C337.213 93.8847 337 92.431 337.077 90.9769C337.093 89.4697 337.427 87.9813 338.058 86.6082C338.685 85.2727 339.585 84.0805 340.7 83.1074C341.816 82.1594 343.111 81.4408 344.507 80.9933C345.923 80.5591 347.411 80.4164 348.881 80.574C350.384 80.7208 351.835 81.1926 353.132 81.9566C354.43 82.7205 355.542 83.758 356.392 84.9963C357.264 86.1886 357.868 87.5539 358.164 89.0003C359.144 91.7662 358.993 94.8081 357.745 97.4742C356.497 100.14 354.25 102.218 351.485 103.263L351.41 103.286Z" fill="#415DEA"/>
<path d="M391.961 161.789C383.53 160.716 374.99 160.736 366.556 161.851C366.072 164.139 365.708 166.45 365.465 168.774C356.504 170.167 347.793 172.864 339.613 176.779C338.087 175.002 336.468 173.305 334.764 171.695C327.176 175.542 320.118 180.351 313.769 186.001C306.375 208.527 307.469 232.925 316.846 254.641C322.126 256.499 327.568 257.876 333.103 258.753C338.543 259.709 344.055 260.218 349.583 260.276C350.926 256.437 351.937 252.493 352.606 248.486C348.892 248.293 345.205 247.761 341.592 246.897L343.405 244.425C353.618 245.812 364.022 244.949 373.881 241.897C383.739 238.844 392.81 233.677 400.452 226.76C401.383 227.123 402.351 227.473 403.345 227.775C400.82 230.515 398.069 233.04 395.12 235.322C397.934 238.262 401.011 240.941 404.313 243.329C413.678 237.077 421.882 229.254 428.557 220.212C427.882 216.829 427.037 213.482 426.024 210.184C419.984 190.922 408.084 174.016 391.961 161.789ZM349.842 230.44C346.967 231.151 343.931 230.714 341.386 229.221C338.842 227.728 336.992 225.3 336.235 222.458C335.657 221.108 335.347 219.658 335.322 218.188C335.393 216.649 335.791 215.14 336.49 213.762C337.098 212.394 338.01 211.181 339.157 210.212C340.228 209.212 341.497 208.445 342.882 207.961C344.324 207.513 345.844 207.375 347.342 207.556C348.805 207.782 350.201 208.321 351.433 209.135C352.727 209.915 353.843 210.953 354.711 212.185C355.55 213.425 356.135 214.819 356.432 216.286C357.424 218.98 357.349 221.952 356.223 224.602C355.603 225.948 354.719 227.157 353.624 228.16C352.528 229.162 351.242 229.938 349.842 230.44ZM387.201 218.872C385.762 219.249 384.264 219.336 382.793 219.128C381.322 218.92 379.91 218.421 378.638 217.662C376.093 216.144 374.248 213.696 373.496 210.839C373.004 209.47 372.79 208.017 372.868 206.563C372.884 205.055 373.218 203.567 373.849 202.194C374.476 200.858 375.376 199.666 376.49 198.693C377.607 197.745 378.901 197.026 380.298 196.579C381.713 196.145 383.201 196.002 384.672 196.16C386.174 196.306 387.625 196.778 388.923 197.542C390.22 198.306 391.333 199.344 392.182 200.582C393.054 201.774 393.659 203.14 393.954 204.586C394.934 207.352 394.784 210.394 393.536 213.06C392.287 215.726 390.04 217.804 387.276 218.849L387.201 218.872Z" fill="#415DEA"/>
<path d="M427.752 277.375C419.321 276.301 410.781 276.322 402.347 277.437C401.862 279.724 401.498 282.035 401.256 284.36C392.295 285.752 383.584 288.45 375.404 292.365C373.878 290.587 372.259 288.89 370.555 287.281C362.966 291.128 355.909 295.936 349.56 301.587C342.166 324.112 343.259 348.51 352.636 370.226C357.917 372.085 363.359 373.461 368.894 374.338C374.334 375.295 379.846 375.804 385.373 375.861C386.717 372.023 387.728 368.079 388.396 364.072C384.682 363.879 380.995 363.347 377.382 362.482L379.196 360.01C389.409 361.398 399.813 360.535 409.671 357.482C419.529 354.43 428.601 349.262 436.243 342.346C437.174 342.708 438.142 343.059 439.136 343.361C436.611 346.101 433.859 348.625 430.91 350.908C433.725 353.847 436.802 356.527 440.104 358.914C449.469 352.662 457.673 344.84 464.347 335.798C463.673 332.414 462.828 329.067 461.815 325.769C455.774 306.508 443.875 289.602 427.752 277.375ZM385.633 346.025C382.758 346.737 379.722 346.299 377.177 344.807C374.632 343.314 372.782 340.886 372.026 338.044C371.448 336.693 371.138 335.243 371.113 333.774C371.184 332.234 371.582 330.726 372.281 329.347C372.889 327.98 373.801 326.766 374.948 325.798C376.018 324.797 377.287 324.03 378.673 323.547C380.115 323.099 381.635 322.961 383.132 323.142C384.596 323.368 385.992 323.906 387.224 324.72C388.518 325.5 389.634 326.539 390.502 327.77C391.341 329.011 391.925 330.404 392.222 331.871C393.214 334.566 393.14 337.538 392.014 340.188C391.394 341.533 390.51 342.743 389.414 343.746C388.318 344.748 387.033 345.523 385.633 346.025ZM422.992 334.458C421.553 334.834 420.054 334.921 418.584 334.713C417.113 334.506 415.7 334.007 414.429 333.247C411.883 331.729 410.039 329.282 409.287 326.425C408.794 325.056 408.581 323.602 408.658 322.148C408.674 320.641 409.008 319.153 409.639 317.779C410.267 316.444 411.166 315.252 412.281 314.279C413.398 313.331 414.692 312.612 416.089 312.165C417.504 311.73 418.992 311.588 420.462 311.745C421.965 311.892 423.416 312.364 424.713 313.128C426.011 313.892 427.123 314.929 427.973 316.167C428.845 317.36 429.449 318.725 429.745 320.172C430.725 322.937 430.575 325.979 429.326 328.645C428.078 331.311 425.831 333.39 423.066 334.434L422.992 334.458Z" fill="#415DEA"/>
<path d="M463.542 392.96C455.111 391.887 446.572 391.908 438.137 393.022C437.653 395.31 437.289 397.621 437.047 399.945C428.086 401.338 419.375 404.035 411.194 407.95C409.668 406.173 408.049 404.476 406.345 402.867C398.757 406.713 391.699 411.522 385.351 417.172C377.956 439.698 379.05 464.096 388.427 485.812C393.708 487.67 399.149 489.047 404.685 489.924C410.125 490.88 415.636 491.39 421.164 491.447C422.507 487.609 423.519 483.664 424.187 479.658C420.473 479.464 416.786 478.932 413.173 478.068L414.987 475.596C425.2 476.983 435.604 476.12 445.462 473.068C455.32 470.015 464.391 464.848 472.033 457.932C472.964 458.294 473.932 458.644 474.927 458.946C472.402 461.686 469.65 464.211 466.701 466.493C469.515 469.433 472.592 472.113 475.894 474.5C485.26 468.248 493.464 460.426 500.138 451.384C499.464 448 498.619 444.653 497.606 441.355C491.565 422.093 479.666 405.188 463.542 392.96ZM421.424 461.611C418.549 462.323 415.512 461.885 412.967 460.392C410.423 458.9 408.573 456.471 407.816 453.63C407.238 452.279 406.928 450.829 406.904 449.359C406.974 447.82 407.372 446.311 408.071 444.933C408.68 443.566 409.592 442.352 410.739 441.383C411.809 440.383 413.078 439.616 414.463 439.133C415.905 438.684 417.426 438.546 418.923 438.727C420.387 438.954 421.782 439.492 423.015 440.306C424.308 441.086 425.424 442.124 426.293 443.356C427.131 444.596 427.716 445.99 428.013 447.457C429.005 450.151 428.93 453.123 427.804 455.774C427.184 457.119 426.301 458.329 425.205 459.331C424.109 460.334 422.823 461.109 421.424 461.611ZM458.782 450.043C457.344 450.42 455.845 450.507 454.374 450.299C452.904 450.091 451.491 449.593 450.219 448.833C447.674 447.315 445.829 444.867 445.077 442.011C444.585 440.642 444.371 439.188 444.449 437.734C444.465 436.226 444.799 434.738 445.43 433.365C446.057 432.03 446.957 430.837 448.071 429.864C449.188 428.916 450.483 428.198 451.879 427.75C453.294 427.316 454.783 427.173 456.253 427.331C457.756 427.478 459.207 427.949 460.504 428.713C461.801 429.477 462.914 430.515 463.763 431.753C464.636 432.945 465.24 434.311 465.535 435.757C466.515 438.523 466.365 441.565 465.117 444.231C463.869 446.897 461.621 448.975 458.857 450.02L458.782 450.043Z" fill="#415DEA"/>
<path d="M463.668 -113.75C455.237 -114.824 446.697 -114.803 438.263 -113.689C437.778 -111.401 437.414 -109.09 437.172 -106.766C428.211 -105.373 419.5 -102.676 411.32 -98.7607C409.794 -100.538 408.175 -102.235 406.471 -103.844C398.882 -99.9977 391.825 -95.1889 385.476 -89.5388C378.082 -67.013 379.175 -42.6149 388.553 -20.8991C393.833 -19.0404 399.275 -17.664 404.81 -16.787C410.25 -15.8308 415.762 -15.3214 421.29 -15.2639C422.633 -19.1023 423.644 -23.0465 424.312 -27.0534C420.598 -27.2466 416.912 -27.7787 413.298 -28.6429L415.112 -31.115C425.325 -29.7276 435.729 -30.5907 445.587 -33.6432C455.446 -36.6958 464.517 -41.8631 472.159 -48.7793C473.09 -48.4171 474.058 -48.0666 475.052 -47.7647C472.527 -45.0248 469.776 -42.5002 466.826 -40.2177C469.641 -37.278 472.718 -34.5982 476.02 -32.2109C485.385 -38.4628 493.589 -46.2854 500.263 -55.3273C499.589 -58.711 498.744 -62.0581 497.731 -65.3561C491.691 -84.6177 479.791 -101.523 463.668 -113.75ZM421.549 -45.0999C418.674 -44.3883 415.638 -44.8259 413.093 -46.3186C410.548 -47.8112 408.699 -50.2396 407.942 -53.0813C407.364 -54.432 407.054 -55.8818 407.029 -57.3515C407.1 -58.8911 407.498 -60.3997 408.197 -61.778C408.805 -63.1454 409.717 -64.3591 410.864 -65.3275C411.935 -66.328 413.204 -67.0949 414.589 -67.5783C416.031 -68.0265 417.551 -68.1647 419.049 -67.9837C420.512 -67.7574 421.908 -67.2189 423.14 -66.4052C424.434 -65.6251 425.55 -64.5867 426.418 -63.3552C427.257 -62.1145 427.841 -60.7209 428.138 -59.2538C429.13 -56.5596 429.056 -53.5875 427.93 -50.9373C427.31 -49.5919 426.426 -48.3823 425.33 -47.3798C424.235 -46.3773 422.949 -45.6021 421.549 -45.0999ZM458.908 -56.6678C457.469 -56.2911 455.97 -56.2041 454.5 -56.412C453.029 -56.6198 451.616 -57.1183 450.345 -57.8781C447.8 -59.3958 445.955 -61.8436 445.203 -64.7003C444.71 -66.0694 444.497 -67.5232 444.574 -68.9772C444.59 -70.4844 444.925 -71.9728 445.555 -73.3459C446.183 -74.6814 447.082 -75.8736 448.197 -76.8467C449.314 -77.7947 450.608 -78.5133 452.005 -78.9608C453.42 -79.395 454.908 -79.5377 456.378 -79.3801C457.881 -79.2334 459.332 -78.7615 460.63 -77.9976C461.927 -77.2336 463.039 -76.1962 463.889 -74.9579C464.761 -73.7655 465.365 -72.4002 465.661 -70.9538C466.641 -68.1879 466.491 -65.146 465.242 -62.48C463.994 -59.8139 461.747 -57.7358 458.982 -56.6909L458.908 -56.6678Z" fill="#415DEA"/>
<path d="M499.458 1.83513C491.028 0.761404 482.488 0.782186 474.053 1.89694C473.569 4.18464 473.205 6.49542 472.963 8.81988C464.002 10.2125 455.291 12.9098 447.111 16.8249C445.584 15.0475 443.966 13.3507 442.261 11.7413C434.673 15.5879 427.616 20.3967 421.267 26.0468C413.872 48.5726 414.966 72.9707 424.343 94.6865C429.624 96.5452 435.065 97.9216 440.601 98.7986C446.041 99.7548 451.552 100.264 457.08 100.322C458.423 96.4833 459.435 92.5391 460.103 88.5322C456.389 88.339 452.702 87.8069 449.089 86.9427L450.903 84.4706C461.116 85.858 471.52 84.9949 481.378 81.9424C491.236 78.8898 500.307 73.7225 507.949 66.8063C508.88 67.1685 509.849 67.5191 510.843 67.821C508.318 70.5609 505.566 73.0854 502.617 75.3679C505.432 78.3076 508.509 80.9874 511.81 83.3747C521.176 77.1228 529.38 69.3002 536.054 60.2583C535.38 56.8746 534.535 53.5275 533.522 50.2296C527.481 30.9679 515.582 14.0622 499.458 1.83513ZM457.34 70.4857C454.465 71.1973 451.428 70.7597 448.884 69.267C446.339 67.7744 444.489 65.346 443.733 62.5043C443.154 61.1536 442.845 59.7038 442.82 58.2342C442.891 56.6945 443.289 55.1859 443.987 53.8076C444.596 52.4402 445.508 51.2265 446.655 50.2581C447.725 49.2576 448.994 48.4907 450.379 48.0073C451.821 47.5591 453.342 47.4209 454.839 47.6019C456.303 47.8282 457.699 48.3667 458.931 49.1805C460.224 49.9605 461.34 50.9989 462.209 52.2304C463.048 53.4711 463.632 54.8647 463.929 56.3318C464.921 59.026 464.846 61.9981 463.72 64.6483C463.101 65.9937 462.217 67.2033 461.121 68.2058C460.025 69.2083 458.74 69.9835 457.34 70.4857ZM494.698 58.9178C493.26 59.2945 491.761 59.3815 490.29 59.1736C488.82 58.9658 487.407 58.4673 486.135 57.7075C483.59 56.1898 481.745 53.742 480.993 50.8853C480.501 49.5162 480.287 48.0625 480.365 46.6084C480.381 45.1012 480.715 43.6128 481.346 42.2397C481.973 40.9042 482.873 39.712 483.988 38.7389C485.104 37.7909 486.399 37.0723 487.795 36.6248C489.211 36.1906 490.699 36.0479 492.169 36.2055C493.672 36.3522 495.123 36.8241 496.42 37.588C497.717 38.352 498.83 39.3895 499.679 40.6278C500.552 41.8201 501.156 43.1854 501.452 44.6318C502.432 47.3977 502.281 50.4396 501.033 53.1056C499.785 55.7717 497.538 57.8498 494.773 58.8947L494.698 58.9178Z" fill="#415DEA"/>
<path d="M535.249 117.421C526.818 116.347 518.278 116.368 509.844 117.483C509.36 119.77 508.996 122.081 508.753 124.405C499.792 125.798 491.081 128.495 482.901 132.411C481.375 130.633 479.756 128.936 478.052 127.327C470.463 131.173 463.406 135.982 457.057 141.632C449.663 164.158 450.757 188.556 460.134 210.272C465.414 212.131 470.856 213.507 476.391 214.384C481.831 215.34 487.343 215.85 492.871 215.907C494.214 212.069 495.225 208.125 495.893 204.118C492.18 203.925 488.493 203.393 484.88 202.528L486.693 200.056C496.906 201.444 507.31 200.581 517.169 197.528C527.027 194.475 536.098 189.308 543.74 182.392C544.671 182.754 545.639 183.105 546.633 183.407C544.108 186.146 541.357 188.671 538.408 190.954C541.222 193.893 544.299 196.573 547.601 198.96C556.966 192.708 565.17 184.886 571.845 175.844C571.17 172.46 570.325 169.113 569.312 165.815C563.272 146.554 551.372 129.648 535.249 117.421ZM493.13 186.071C490.255 186.783 487.219 186.345 484.674 184.853C482.129 183.36 480.28 180.932 479.523 178.09C478.945 176.739 478.635 175.289 478.61 173.82C478.681 172.28 479.079 170.772 479.778 169.393C480.386 168.026 481.298 166.812 482.445 165.844C483.516 164.843 484.785 164.076 486.17 163.593C487.612 163.145 489.132 163.007 490.63 163.188C492.093 163.414 493.489 163.952 494.721 164.766C496.015 165.546 497.131 166.585 497.999 167.816C498.838 169.057 499.423 170.45 499.72 171.917C500.712 174.612 500.637 177.584 499.511 180.234C498.891 181.579 498.007 182.789 496.912 183.791C495.816 184.794 494.53 185.569 493.13 186.071ZM530.489 174.503C529.05 174.88 527.552 174.967 526.081 174.759C524.61 174.551 523.198 174.053 521.926 173.293C519.381 171.775 517.536 169.328 516.784 166.471C516.292 165.102 516.078 163.648 516.156 162.194C516.172 160.687 516.506 159.198 517.137 157.825C517.764 156.49 518.664 155.298 519.778 154.324C520.895 153.377 522.189 152.658 523.586 152.21C525.001 151.776 526.489 151.634 527.96 151.791C529.462 151.938 530.913 152.41 532.211 153.174C533.508 153.938 534.621 154.975 535.47 156.213C536.342 157.406 536.947 158.771 537.242 160.217C538.222 162.983 538.072 166.025 536.824 168.691C535.575 171.357 533.328 173.435 530.564 174.48L530.489 174.503Z" fill="#415DEA"/>
<path d="M571.04 233.006C562.609 231.933 554.069 231.953 545.635 233.068C545.15 235.356 544.786 237.667 544.544 239.991C535.583 241.384 526.872 244.081 518.692 247.996C517.165 246.219 515.547 244.522 513.842 242.912C506.254 246.759 499.197 251.568 492.848 257.218C485.454 279.744 486.547 304.142 495.924 325.858C501.205 327.716 506.647 329.093 512.182 329.97C517.622 330.926 523.134 331.435 528.661 331.493C530.005 327.655 531.016 323.71 531.684 319.703C527.97 319.51 524.283 318.978 520.67 318.114L522.484 315.642C532.697 317.029 543.101 316.166 552.959 313.114C562.817 310.061 571.889 304.894 579.531 297.978C580.461 298.34 581.43 298.69 582.424 298.992C579.899 301.732 577.147 304.257 574.198 306.539C577.013 309.479 580.09 312.159 583.392 314.546C592.757 308.294 600.961 300.471 607.635 291.429C606.961 288.046 606.116 284.699 605.103 281.401C599.062 262.139 587.163 245.233 571.04 233.006ZM528.921 301.657C526.046 302.369 523.01 301.931 520.465 300.438C517.92 298.946 516.07 296.517 515.314 293.675C514.736 292.325 514.426 290.875 514.401 289.405C514.472 287.866 514.87 286.357 515.569 284.979C516.177 283.611 517.089 282.398 518.236 281.429C519.306 280.429 520.575 279.662 521.961 279.178C523.403 278.73 524.923 278.592 526.42 278.773C527.884 278.999 529.28 279.538 530.512 280.352C531.806 281.132 532.922 282.17 533.79 283.402C534.629 284.642 535.213 286.036 535.51 287.503C536.502 290.197 536.428 293.169 535.302 295.82C534.682 297.165 533.798 298.375 532.702 299.377C531.606 300.38 530.321 301.155 528.921 301.657ZM566.28 290.089C564.841 290.466 563.342 290.553 561.872 290.345C560.401 290.137 558.988 289.639 557.717 288.879C555.171 287.361 553.327 284.913 552.575 282.056C552.082 280.687 551.869 279.234 551.946 277.78C551.962 276.272 552.296 274.784 552.927 273.411C553.555 272.075 554.454 270.883 555.569 269.91C556.686 268.962 557.98 268.243 559.377 267.796C560.792 267.362 562.28 267.219 563.75 267.377C565.253 267.523 566.704 267.995 568.001 268.759C569.299 269.523 570.411 270.561 571.261 271.799C572.133 272.991 572.737 274.357 573.033 275.803C574.013 278.569 573.863 281.611 572.614 284.277C571.366 286.943 569.119 289.021 566.354 290.066L566.28 290.089Z" fill="#415DEA"/>
<path d="M606.83 348.592C598.399 347.518 589.86 347.539 581.425 348.654C580.941 350.941 580.577 353.252 580.335 355.577C571.374 356.969 562.662 359.667 554.482 363.582C552.956 361.804 551.337 360.108 549.633 358.498C542.045 362.345 534.987 367.153 528.639 372.804C521.244 395.329 522.338 419.727 531.715 441.443C536.995 443.302 542.437 444.678 547.973 445.555C553.413 446.512 558.924 447.021 564.452 447.078C565.795 443.24 566.807 439.296 567.475 435.289C563.761 435.096 560.074 434.564 556.461 433.7L558.275 431.227C568.488 432.615 578.892 431.752 588.75 428.699C598.608 425.647 607.679 420.479 615.321 413.563C616.252 413.925 617.22 414.276 618.215 414.578C615.69 417.318 612.938 419.842 609.989 422.125C612.803 425.064 615.88 427.744 619.182 430.131C628.547 423.88 636.751 416.057 643.426 407.015C642.752 403.631 641.906 400.284 640.894 396.986C634.853 377.725 622.954 360.819 606.83 348.592ZM564.712 417.243C561.837 417.954 558.8 417.517 556.255 416.024C553.711 414.531 551.861 412.103 551.104 409.261C550.526 407.91 550.216 406.461 550.191 404.991C550.262 403.451 550.66 401.943 551.359 400.564C551.968 399.197 552.88 397.983 554.027 397.015C555.097 396.014 556.366 395.248 557.751 394.764C559.193 394.316 560.714 394.178 562.211 394.359C563.675 394.585 565.07 395.124 566.303 395.937C567.596 396.717 568.712 397.756 569.581 398.987C570.419 400.228 571.004 401.621 571.301 403.089C572.293 405.783 572.218 408.755 571.092 411.405C570.472 412.751 569.589 413.96 568.493 414.963C567.397 415.965 566.111 416.74 564.712 417.243ZM602.07 405.675C600.632 406.051 599.133 406.138 597.662 405.93C596.192 405.723 594.779 405.224 593.507 404.464C590.962 402.947 589.117 400.499 588.365 397.642C587.873 396.273 587.659 394.819 587.737 393.365C587.753 391.858 588.087 390.37 588.718 388.997C589.345 387.661 590.245 386.469 591.359 385.496C592.476 384.548 593.771 383.829 595.167 383.382C596.582 382.947 598.071 382.805 599.541 382.962C601.044 383.109 602.495 383.581 603.792 384.345C605.089 385.109 606.202 386.146 607.051 387.385C607.923 388.577 608.528 389.942 608.823 391.389C609.803 394.155 609.653 397.196 608.405 399.862C607.156 402.529 604.909 404.607 602.145 405.651L602.07 405.675Z" fill="#415DEA"/>
<path d="M606.956 -158.119C598.525 -159.193 589.985 -159.172 581.551 -158.057C581.066 -155.769 580.702 -153.459 580.46 -151.134C571.499 -149.742 562.788 -147.044 554.608 -143.129C553.082 -144.907 551.463 -146.603 549.759 -148.213C542.17 -144.366 535.113 -139.557 528.764 -133.907C521.37 -111.382 522.463 -86.9834 531.841 -65.2676C537.121 -63.4089 542.563 -62.0326 548.098 -61.1556C553.538 -60.1993 559.05 -59.6899 564.577 -59.6324C565.921 -63.4708 566.932 -67.415 567.6 -71.4219C563.886 -71.6151 560.2 -72.1472 556.586 -73.0114L558.4 -75.4835C568.613 -74.0961 579.017 -74.9592 588.875 -78.0117C598.734 -81.0643 607.805 -86.2316 615.447 -93.1478C616.378 -92.7856 617.346 -92.4351 618.34 -92.1332C615.815 -89.3933 613.064 -86.8687 610.114 -84.5862C612.929 -81.6466 616.006 -78.9668 619.308 -76.5795C628.673 -82.8313 636.877 -90.6539 643.551 -99.6958C642.877 -103.08 642.032 -106.427 641.019 -109.725C634.979 -128.986 623.079 -145.892 606.956 -158.119ZM564.837 -89.4684C561.962 -88.7568 558.926 -89.1944 556.381 -90.6871C553.836 -92.1797 551.987 -94.6081 551.23 -97.4499C550.652 -98.8005 550.342 -100.25 550.317 -101.72C550.388 -103.26 550.786 -104.768 551.485 -106.146C552.093 -107.514 553.005 -108.728 554.152 -109.696C555.223 -110.697 556.491 -111.463 557.877 -111.947C559.319 -112.395 560.839 -112.533 562.337 -112.352C563.8 -112.126 565.196 -111.587 566.428 -110.774C567.722 -109.994 568.838 -108.955 569.706 -107.724C570.545 -106.483 571.129 -105.089 571.426 -103.622C572.418 -100.928 572.344 -97.956 571.218 -95.3058C570.598 -93.9604 569.714 -92.7508 568.618 -91.7483C567.523 -90.7458 566.237 -89.9706 564.837 -89.4684ZM602.196 -101.036C600.757 -100.66 599.258 -100.573 597.788 -100.78C596.317 -100.988 594.904 -101.487 593.633 -102.247C591.088 -103.764 589.243 -106.212 588.491 -109.069C587.998 -110.438 587.785 -111.892 587.862 -113.346C587.878 -114.853 588.212 -116.341 588.843 -117.714C589.471 -119.05 590.37 -120.242 591.485 -121.215C592.602 -122.163 593.896 -122.882 595.293 -123.329C596.708 -123.763 598.196 -123.906 599.666 -123.749C601.169 -123.602 602.62 -123.13 603.917 -122.366C605.215 -121.602 606.327 -120.565 607.177 -119.326C608.049 -118.134 608.653 -116.769 608.949 -115.322C609.929 -112.556 609.779 -109.515 608.53 -106.848C607.282 -104.182 605.035 -102.104 602.27 -101.059L602.196 -101.036Z" fill="#415DEA"/>
<path d="M642.746 -42.5334C634.315 -43.6071 625.776 -43.5863 617.341 -42.4716C616.857 -40.1839 616.493 -37.8731 616.251 -35.5486C607.29 -34.156 598.579 -31.4587 590.399 -27.5436C588.872 -29.321 587.254 -31.0178 585.549 -32.6273C577.961 -28.7807 570.904 -23.9719 564.555 -18.3217C557.16 4.20405 558.254 28.6022 567.631 50.318C572.912 52.1767 578.353 53.5531 583.889 54.4301C589.329 55.3863 594.84 55.8957 600.368 55.9532C601.711 52.1148 602.723 48.1706 603.391 44.1637C599.677 43.9705 595.99 43.4384 592.377 42.5742L594.191 40.1021C604.404 41.4895 614.808 40.6264 624.666 37.5739C634.524 34.5213 643.595 29.354 651.237 22.4378C652.168 22.8 653.136 23.1505 654.131 23.4524C651.606 26.1923 648.854 28.7169 645.905 30.9994C648.72 33.9391 651.797 36.6188 655.098 39.0061C664.464 32.7543 672.668 24.9317 679.342 15.8898C678.668 12.5061 677.823 9.15895 676.81 5.86104C670.769 -13.4006 658.87 -30.3063 642.746 -42.5334ZM600.628 26.1172C597.753 26.8288 594.716 26.3912 592.172 24.8985C589.627 23.4059 587.777 20.9775 587.02 18.1358C586.442 16.7851 586.132 15.3353 586.108 13.8656C586.179 12.326 586.577 10.8174 587.275 9.43912C587.884 8.07168 588.796 6.85803 589.943 5.8896C591.013 4.88905 592.282 4.12223 593.667 3.63876C595.109 3.19058 596.63 3.05239 598.127 3.23339C599.591 3.45972 600.986 3.99822 602.219 4.81194C603.512 5.59199 604.628 6.63042 605.497 7.86189C606.336 9.1026 606.92 10.4962 607.217 11.9633C608.209 14.6575 608.134 17.6296 607.008 20.2798C606.389 21.6252 605.505 22.8348 604.409 23.8373C603.313 24.8398 602.027 25.615 600.628 26.1172ZM637.986 14.5493C636.548 14.926 635.049 15.013 633.578 14.8051C632.108 14.5973 630.695 14.0988 629.423 13.339C626.878 11.8213 625.033 9.37352 624.281 6.51678C623.789 5.14769 623.575 3.69394 623.653 2.23987C623.669 0.732662 624.003 -0.755696 624.634 -2.12881C625.261 -3.46432 626.161 -4.65655 627.275 -5.62966C628.392 -6.57763 629.687 -7.29622 631.083 -7.74369C632.499 -8.17789 633.987 -8.32059 635.457 -8.16303C636.96 -8.01627 638.411 -7.5444 639.708 -6.78047C641.005 -6.01654 642.118 -4.97905 642.967 -3.74076C643.84 -2.54845 644.444 -1.18308 644.739 0.26331C645.72 3.02922 645.569 6.07109 644.321 8.73713C643.073 11.4032 640.825 13.4813 638.061 14.5262L637.986 14.5493Z" fill="#415DEA"/>
<path d="M678.537 73.0522C670.106 71.9785 661.566 71.9993 653.132 73.114C652.648 75.4017 652.284 77.7125 652.041 80.037C643.08 81.4296 634.369 84.1269 626.189 88.042C624.663 86.2646 623.044 84.5678 621.34 82.9583C613.751 86.805 606.694 91.6138 600.345 97.2639C592.951 119.79 594.044 144.188 603.422 165.904C608.702 167.762 614.144 169.139 619.679 170.016C625.119 170.972 630.631 171.481 636.159 171.539C637.502 167.7 638.513 163.756 639.181 159.749C635.468 159.556 631.781 159.024 628.168 158.16L629.981 155.688C640.194 157.075 650.598 156.212 660.457 153.16C670.315 150.107 679.386 144.94 687.028 138.023C687.959 138.386 688.927 138.736 689.921 139.038C687.396 141.778 684.645 144.303 681.695 146.585C684.51 149.525 687.587 152.204 690.889 154.592C700.254 148.34 708.458 140.517 715.133 131.475C714.458 128.092 713.613 124.745 712.6 121.447C706.56 102.185 694.66 85.2793 678.537 73.0522ZM636.418 141.703C633.543 142.414 630.507 141.977 627.962 140.484C625.417 138.991 623.568 136.563 622.811 133.721C622.233 132.371 621.923 130.921 621.898 129.451C621.969 127.912 622.367 126.403 623.066 125.025C623.674 123.657 624.586 122.444 625.733 121.475C626.804 120.475 628.073 119.708 629.458 119.224C630.9 118.776 632.42 118.638 633.918 118.819C635.381 119.045 636.777 119.584 638.009 120.398C639.303 121.178 640.419 122.216 641.287 123.447C642.126 124.688 642.711 126.082 643.008 127.549C644 130.243 643.925 133.215 642.799 135.865C642.179 137.211 641.295 138.42 640.2 139.423C639.104 140.425 637.818 141.201 636.418 141.703ZM673.777 130.135C672.338 130.512 670.84 130.599 669.369 130.391C667.898 130.183 666.486 129.684 665.214 128.925C662.669 127.407 660.824 124.959 660.072 122.102C659.58 120.733 659.366 119.28 659.444 117.825C659.46 116.318 659.794 114.83 660.424 113.457C661.052 112.121 661.952 110.929 663.066 109.956C664.183 109.008 665.477 108.289 666.874 107.842C668.289 107.408 669.777 107.265 671.248 107.423C672.75 107.569 674.201 108.041 675.499 108.805C676.796 109.569 677.908 110.607 678.758 111.845C679.63 113.037 680.234 114.403 680.53 115.849C681.51 118.615 681.36 121.657 680.112 124.323C678.863 126.989 676.616 129.067 673.852 130.112L673.777 130.135Z" fill="#415DEA"/>
<path d="M714.328 188.638C705.897 187.564 697.357 187.585 688.923 188.7C688.438 190.987 688.074 193.298 687.832 195.623C678.871 197.015 670.16 199.713 661.98 203.628C660.453 201.85 658.835 200.153 657.13 198.544C649.542 202.391 642.485 207.199 636.136 212.85C628.742 235.375 629.835 259.773 639.212 281.489C644.493 283.348 649.934 284.724 655.47 285.601C660.91 286.558 666.422 287.067 671.949 287.124C673.293 283.286 674.304 279.342 674.972 275.335C671.258 275.142 667.571 274.61 663.958 273.745L665.772 271.273C675.985 272.661 686.389 271.798 696.247 268.745C706.105 265.693 715.177 260.525 722.818 253.609C723.749 253.971 724.718 254.322 725.712 254.624C723.187 257.364 720.435 259.888 717.486 262.171C720.301 265.11 723.378 267.79 726.68 270.177C736.045 263.925 744.249 256.103 750.923 247.061C750.249 243.677 749.404 240.33 748.391 237.032C742.35 217.771 730.451 200.865 714.328 188.638ZM672.209 257.288C669.334 258 666.297 257.562 663.753 256.07C661.208 254.577 659.358 252.149 658.602 249.307C658.024 247.956 657.714 246.506 657.689 245.037C657.76 243.497 658.158 241.989 658.856 240.61C659.465 239.243 660.377 238.029 661.524 237.061C662.594 236.06 663.863 235.293 665.249 234.81C666.691 234.362 668.211 234.224 669.708 234.405C671.172 234.631 672.568 235.169 673.8 235.983C675.093 236.763 676.21 237.802 677.078 239.033C677.917 240.274 678.501 241.667 678.798 243.134C679.79 245.829 679.716 248.801 678.589 251.451C677.97 252.796 677.086 254.006 675.99 255.009C674.894 256.011 673.609 256.786 672.209 257.288ZM709.567 245.721C708.129 246.097 706.63 246.184 705.16 245.976C703.689 245.768 702.276 245.27 701.005 244.51C698.459 242.992 696.614 240.545 695.863 237.688C695.37 236.319 695.157 234.865 695.234 233.411C695.25 231.904 695.584 230.416 696.215 229.042C696.842 227.707 697.742 226.515 698.857 225.542C699.974 224.594 701.268 223.875 702.665 223.428C704.08 222.993 705.568 222.851 707.038 223.008C708.541 223.155 709.992 223.627 711.289 224.391C712.587 225.155 713.699 226.192 714.549 227.43C715.421 228.623 716.025 229.988 716.321 231.435C717.301 234.2 717.15 237.242 715.902 239.908C714.654 242.574 712.407 244.653 709.642 245.697L709.567 245.721Z" fill="#415DEA"/>
<path d="M750.118 304.223C741.687 303.15 733.147 303.17 724.713 304.285C724.229 306.573 723.865 308.884 723.623 311.208C714.661 312.601 705.95 315.298 697.77 319.213C696.244 317.436 694.625 315.739 692.921 314.13C685.333 317.976 678.275 322.785 671.927 328.435C664.532 350.961 665.626 375.359 675.003 397.075C680.283 398.933 685.725 400.31 691.26 401.187C696.7 402.143 702.212 402.653 707.74 402.71C709.083 398.872 710.094 394.927 710.763 390.921C707.049 390.727 703.362 390.195 699.749 389.331L701.563 386.859C711.776 388.246 722.18 387.383 732.038 384.331C741.896 381.278 750.967 376.111 758.609 369.195C759.54 369.557 760.508 369.907 761.502 370.209C758.978 372.949 756.226 375.474 753.277 377.756C756.091 380.696 759.168 383.376 762.47 385.763C771.835 379.511 780.039 371.689 786.714 362.647C786.04 359.263 785.194 355.916 784.182 352.618C778.141 333.356 766.242 316.451 750.118 304.223ZM707.999 372.874C705.125 373.586 702.088 373.148 699.543 371.655C696.999 370.163 695.149 367.734 694.392 364.893C693.814 363.542 693.504 362.092 693.479 360.622C693.55 359.083 693.948 357.574 694.647 356.196C695.256 354.828 696.168 353.615 697.315 352.646C698.385 351.646 699.654 350.879 701.039 350.396C702.481 349.947 704.002 349.809 705.499 349.99C706.963 350.217 708.358 350.755 709.591 351.569C710.884 352.349 712 353.387 712.869 354.619C713.707 355.859 714.292 357.253 714.589 358.72C715.581 361.414 715.506 364.386 714.38 367.037C713.76 368.382 712.877 369.592 711.781 370.594C710.685 371.597 709.399 372.372 707.999 372.874ZM745.358 361.306C743.919 361.683 742.421 361.77 740.95 361.562C739.48 361.354 738.067 360.856 736.795 360.096C734.25 358.578 732.405 356.13 731.653 353.274C731.161 351.905 730.947 350.451 731.025 348.997C731.041 347.489 731.375 346.001 732.006 344.628C732.633 343.292 733.533 342.1 734.647 341.127C735.764 340.179 737.058 339.461 738.455 339.013C739.87 338.579 741.359 338.436 742.829 338.594C744.331 338.741 745.782 339.212 747.08 339.976C748.377 340.74 749.49 341.778 750.339 343.016C751.211 344.208 751.816 345.574 752.111 347.02C753.091 349.786 752.941 352.828 751.693 355.494C750.444 358.16 748.197 360.238 745.433 361.283L745.358 361.306Z" fill="#415DEA"/>
<path d="M750.244 -202.487C741.813 -203.561 733.273 -203.54 724.839 -202.426C724.354 -200.138 723.99 -197.827 723.748 -195.503C714.787 -194.11 706.076 -191.413 697.896 -187.498C696.37 -189.275 694.751 -190.972 693.047 -192.581C685.458 -188.735 678.401 -183.926 672.052 -178.276C664.658 -155.75 665.751 -131.352 675.128 -109.636C680.409 -107.777 685.851 -106.401 691.386 -105.524C696.826 -104.568 702.338 -104.058 707.865 -104.001C709.209 -107.839 710.22 -111.783 710.888 -115.79C707.174 -115.984 703.488 -116.516 699.874 -117.38L701.688 -119.852C711.901 -118.465 722.305 -119.328 732.163 -122.38C742.022 -125.433 751.093 -130.6 758.735 -137.516C759.666 -137.154 760.634 -136.804 761.628 -136.502C759.103 -133.762 756.351 -131.237 753.402 -128.955C756.217 -126.015 759.294 -123.335 762.596 -120.948C771.961 -127.2 780.165 -135.022 786.839 -144.064C786.165 -147.448 785.32 -150.795 784.307 -154.093C778.266 -173.355 766.367 -190.26 750.244 -202.487ZM708.125 -133.837C705.25 -133.125 702.214 -133.563 699.669 -135.056C697.124 -136.548 695.274 -138.977 694.518 -141.818C693.94 -143.169 693.63 -144.619 693.605 -146.088C693.676 -147.628 694.074 -149.137 694.773 -150.515C695.381 -151.882 696.293 -153.096 697.44 -154.065C698.511 -155.065 699.779 -155.832 701.165 -156.315C702.607 -156.764 704.127 -156.902 705.625 -156.721C707.088 -156.494 708.484 -155.956 709.716 -155.142C711.01 -154.362 712.126 -153.324 712.994 -152.092C713.833 -150.852 714.417 -149.458 714.714 -147.991C715.706 -145.297 715.632 -142.324 714.506 -139.674C713.886 -138.329 713.002 -137.119 711.906 -136.117C710.81 -135.114 709.525 -134.339 708.125 -133.837ZM745.484 -145.405C744.045 -145.028 742.546 -144.941 741.076 -145.149C739.605 -145.357 738.192 -145.855 736.921 -146.615C734.376 -148.133 732.531 -150.581 731.779 -153.437C731.286 -154.806 731.073 -156.26 731.15 -157.714C731.166 -159.221 731.5 -160.71 732.131 -162.083C732.759 -163.418 733.658 -164.611 734.773 -165.584C735.89 -166.532 737.184 -167.25 738.581 -167.698C739.996 -168.132 741.484 -168.275 742.954 -168.117C744.457 -167.97 745.908 -167.499 747.205 -166.735C748.503 -165.971 749.615 -164.933 750.465 -163.695C751.337 -162.503 751.941 -161.137 752.237 -159.691C753.217 -156.925 753.067 -153.883 751.818 -151.217C750.57 -148.551 748.323 -146.473 745.558 -145.428L745.484 -145.405Z" fill="#415DEA"/>
<path d="M786.034 -86.9019C777.603 -87.9756 769.064 -87.9548 760.629 -86.8401C760.145 -84.5524 759.781 -82.2416 759.539 -79.9171C750.578 -78.5245 741.867 -75.8272 733.687 -71.9121C732.16 -73.6895 730.541 -75.3863 728.837 -76.9958C721.249 -73.1492 714.191 -68.3404 707.843 -62.6902C700.448 -40.1645 701.542 -15.7664 710.919 5.94945C716.2 7.80817 721.641 9.18454 727.177 10.0615C732.617 11.0178 738.128 11.5272 743.656 11.5847C744.999 7.7463 746.011 3.80213 746.679 -0.204786C742.965 -0.398014 739.278 -0.930075 735.665 -1.79428L737.479 -4.26646C747.692 -2.87899 758.096 -3.74208 767.954 -6.79463C777.812 -9.84719 786.883 -15.0145 794.525 -21.9307C795.456 -21.5686 796.424 -21.218 797.419 -20.9161C794.894 -18.1762 792.142 -15.6516 789.193 -13.3691C792.007 -10.4295 795.084 -7.74966 798.386 -5.36236C807.752 -11.6142 815.956 -19.4368 822.63 -28.4788C821.956 -31.8624 821.111 -35.2096 820.098 -38.5075C814.057 -57.7691 802.158 -74.6748 786.034 -86.9019ZM743.916 -18.2513C741.041 -17.5397 738.004 -17.9773 735.459 -19.47C732.915 -20.9626 731.065 -23.391 730.308 -26.2328C729.73 -27.5834 729.42 -29.0333 729.396 -30.5029C729.467 -32.0425 729.864 -33.5511 730.563 -34.9294C731.172 -36.2968 732.084 -37.5105 733.231 -38.4789C734.301 -39.4795 735.57 -40.2463 736.955 -40.7298C738.397 -41.1779 739.918 -41.3161 741.415 -41.1351C742.879 -40.9088 744.274 -40.3703 745.507 -39.5566C746.8 -38.7765 747.916 -37.7381 748.785 -36.5066C749.623 -35.2659 750.208 -33.8724 750.505 -32.4053C751.497 -29.711 751.422 -26.7389 750.296 -24.0887C749.676 -22.7433 748.793 -21.5337 747.697 -20.5312C746.601 -19.5287 745.315 -18.7535 743.916 -18.2513ZM781.274 -29.8192C779.836 -29.4425 778.337 -29.3555 776.866 -29.5634C775.396 -29.7713 773.983 -30.2697 772.711 -31.0295C770.166 -32.5473 768.321 -34.995 767.569 -37.8517C767.077 -39.2208 766.863 -40.6746 766.941 -42.1286C766.957 -43.6358 767.291 -45.1242 767.922 -46.4973C768.549 -47.8328 769.449 -49.0251 770.563 -49.9982C771.68 -50.9461 772.975 -51.6647 774.371 -52.1122C775.786 -52.5464 777.275 -52.6891 778.745 -52.5315C780.248 -52.3848 781.699 -51.9129 782.996 -51.149C784.293 -50.3851 785.406 -49.3476 786.255 -48.1093C787.128 -46.917 787.732 -45.5516 788.027 -44.1052C789.007 -41.3393 788.857 -38.2974 787.609 -35.6314C786.361 -32.9653 784.113 -30.8872 781.349 -29.8424L781.274 -29.8192Z" fill="#415DEA"/>
<path d="M821.825 28.6837C813.394 27.61 804.854 27.6308 796.42 28.7455C795.936 31.0332 795.572 33.344 795.329 35.6685C786.368 37.0611 777.657 39.7584 769.477 43.6735C767.951 41.8961 766.332 40.1993 764.628 38.5898C757.039 42.4364 749.982 47.2452 743.633 52.8954C736.239 75.4211 737.332 99.8193 746.71 121.535C751.99 123.394 757.432 124.77 762.967 125.647C768.407 126.603 773.919 127.113 779.447 127.17C780.79 123.332 781.801 119.388 782.469 115.381C778.755 115.188 775.069 114.656 771.455 113.791L773.269 111.319C783.482 112.707 793.886 111.844 803.744 108.791C813.603 105.738 822.674 100.571 830.316 93.6549C831.247 94.017 832.215 94.3676 833.209 94.6695C830.684 97.4094 827.933 99.934 824.983 102.217C827.798 105.156 830.875 107.836 834.177 110.223C843.542 103.971 851.746 96.1488 858.421 87.1069C857.746 83.7232 856.901 80.376 855.888 77.0781C849.848 57.8165 837.948 40.9108 821.825 28.6837ZM779.706 97.3343C776.831 98.0459 773.795 97.6083 771.25 96.1156C768.705 94.623 766.856 92.1945 766.099 89.3528C765.521 88.0022 765.211 86.5523 765.186 85.0827C765.257 83.5431 765.655 82.0345 766.354 80.6562C766.962 79.2888 767.874 78.0751 769.021 77.1067C770.092 76.1061 771.361 75.3393 772.746 74.8559C774.188 74.4077 775.708 74.2695 777.206 74.4505C778.669 74.6768 780.065 75.2153 781.297 76.029C782.591 76.8091 783.707 77.8475 784.575 79.079C785.414 80.3197 785.999 81.7133 786.296 83.1804C787.287 85.8746 787.213 88.8467 786.087 91.4969C785.467 92.8423 784.583 94.0519 783.487 95.0544C782.392 96.0569 781.106 96.8321 779.706 97.3343ZM817.065 85.7664C815.626 86.1431 814.127 86.2301 812.657 86.0222C811.186 85.8144 809.774 85.3159 808.502 84.5561C805.957 83.0383 804.112 80.5906 803.36 77.7339C802.868 76.3648 802.654 74.911 802.732 73.457C802.747 71.9498 803.082 70.4614 803.712 69.0883C804.34 67.7528 805.239 66.5606 806.354 65.5875C807.471 64.6395 808.765 63.9209 810.162 63.4734C811.577 63.0392 813.065 62.8965 814.536 63.0541C816.038 63.2008 817.489 63.6727 818.787 64.4366C820.084 65.2006 821.196 66.238 822.046 67.4763C822.918 68.6686 823.522 70.034 823.818 71.4804C824.798 74.2463 824.648 77.2882 823.399 79.9542C822.151 82.6203 819.904 84.6984 817.14 85.7433L817.065 85.7664Z" fill="#415DEA"/>
<path d="M857.615 144.269C849.185 143.196 840.645 143.216 832.21 144.331C831.726 146.619 831.362 148.93 831.12 151.254C822.159 152.647 813.448 155.344 805.268 159.259C803.741 157.482 802.123 155.785 800.418 154.175C792.83 158.022 785.773 162.831 779.424 168.481C772.029 191.007 773.123 215.405 782.5 237.121C787.781 238.979 793.222 240.356 798.758 241.233C804.198 242.189 809.71 242.698 815.237 242.756C816.581 238.918 817.592 234.973 818.26 230.966C814.546 230.773 810.859 230.241 807.246 229.377L809.06 226.905C819.273 228.292 829.677 227.429 839.535 224.377C849.393 221.324 858.465 216.157 866.106 209.241C867.037 209.603 868.006 209.953 869 210.255C866.475 212.995 863.723 215.52 860.774 217.802C863.589 220.742 866.666 223.422 869.968 225.809C879.333 219.557 887.537 211.734 894.211 202.692C893.537 199.309 892.692 195.962 891.679 192.664C885.638 173.402 873.739 156.496 857.615 144.269ZM815.497 212.92C812.622 213.631 809.585 213.194 807.041 211.701C804.496 210.209 802.646 207.78 801.89 204.938C801.312 203.588 801.002 202.138 800.977 200.668C801.048 199.129 801.446 197.62 802.144 196.242C802.753 194.874 803.665 193.661 804.812 192.692C805.882 191.692 807.151 190.925 808.536 190.441C809.979 189.993 811.499 189.855 812.996 190.036C814.46 190.262 815.856 190.801 817.088 191.615C818.381 192.395 819.498 193.433 820.366 194.665C821.205 195.905 821.789 197.299 822.086 198.766C823.078 201.46 823.003 204.432 821.877 207.082C821.258 208.428 820.374 209.637 819.278 210.64C818.182 211.643 816.897 212.418 815.497 212.92ZM852.855 201.352C851.417 201.729 849.918 201.816 848.447 201.608C846.977 201.4 845.564 200.901 844.293 200.142C841.747 198.624 839.902 196.176 839.15 193.319C838.658 191.95 838.445 190.497 838.522 189.043C838.538 187.535 838.872 186.047 839.503 184.674C840.13 183.338 841.03 182.146 842.145 181.173C843.261 180.225 844.556 179.506 845.952 179.059C847.368 178.625 848.856 178.482 850.326 178.64C851.829 178.786 853.28 179.258 854.577 180.022C855.875 180.786 856.987 181.824 857.837 183.062C858.709 184.254 859.313 185.62 859.609 187.066C860.589 189.832 860.438 192.874 859.19 195.54C857.942 198.206 855.695 200.284 852.93 201.329L852.855 201.352Z" fill="#415DEA"/>
<path d="M893.406 259.855C884.975 258.781 876.435 258.802 868.001 259.917C867.517 262.204 867.153 264.515 866.91 266.84C857.949 268.232 849.238 270.93 841.058 274.845C839.532 273.067 837.913 271.371 836.209 269.761C828.621 273.608 821.563 278.416 815.214 284.067C807.82 306.592 808.914 330.99 818.291 352.706C823.571 354.565 829.013 355.941 834.548 356.818C839.988 357.775 845.5 358.284 851.028 358.341C852.371 354.503 853.382 350.559 854.051 346.552C850.337 346.359 846.65 345.827 843.037 344.963L844.85 342.49C855.063 343.878 865.467 343.015 875.326 339.962C885.184 336.91 894.255 331.742 901.897 324.826C902.828 325.188 903.796 325.539 904.79 325.841C902.266 328.581 899.514 331.105 896.565 333.388C899.379 336.327 902.456 339.007 905.758 341.394C915.123 335.143 923.327 327.32 930.002 318.278C929.328 314.894 928.482 311.547 927.469 308.249C921.429 288.988 909.529 272.082 893.406 259.855ZM851.287 328.506C848.413 329.217 845.376 328.779 842.831 327.287C840.287 325.794 838.437 323.366 837.68 320.524C837.102 319.173 836.792 317.724 836.767 316.254C836.838 314.714 837.236 313.206 837.935 311.827C838.543 310.46 839.456 309.246 840.602 308.278C841.673 307.277 842.942 306.511 844.327 306.027C845.769 305.579 847.289 305.441 848.787 305.622C850.25 305.848 851.646 306.387 852.878 307.2C854.172 307.98 855.288 309.019 856.156 310.25C856.995 311.491 857.58 312.884 857.877 314.352C858.869 317.046 858.794 320.018 857.668 322.668C857.048 324.014 856.164 325.223 855.069 326.226C853.973 327.228 852.687 328.003 851.287 328.506ZM888.646 316.938C887.207 317.314 885.709 317.401 884.238 317.193C882.767 316.986 881.355 316.487 880.083 315.727C877.538 314.21 875.693 311.762 874.941 308.905C874.449 307.536 874.235 306.082 874.313 304.628C874.329 303.121 874.663 301.633 875.294 300.259C875.921 298.924 876.821 297.732 877.935 296.759C879.052 295.811 880.346 295.092 881.743 294.645C883.158 294.21 884.647 294.068 886.117 294.225C887.619 294.372 889.07 294.844 890.368 295.608C891.665 296.372 892.778 297.409 893.627 298.648C894.499 299.84 895.104 301.205 895.399 302.652C896.379 305.418 896.229 308.459 894.981 311.125C893.732 313.792 891.485 315.87 888.721 316.914L888.646 316.938Z" fill="#415DEA"/>
<path d="M717.91 -27.0653C717.862 -27.2204 717.838 -27.298 717.849 -27.3666C717.86 -27.427 717.889 -27.4825 717.933 -27.5252C717.983 -27.5737 718.06 -27.5977 718.216 -27.6457L718.284 -27.6671C718.439 -27.7151 718.517 -27.7391 718.586 -27.7273C718.646 -27.7169 718.702 -27.6876 718.744 -27.6437C718.793 -27.5938 718.817 -27.5162 718.865 -27.3611L718.886 -27.2923C718.934 -27.1371 718.958 -27.0596 718.946 -26.9909C718.936 -26.9306 718.907 -26.8751 718.863 -26.8324C718.813 -26.7839 718.735 -26.7598 718.58 -26.7118L718.511 -26.6905C718.356 -26.6425 718.279 -26.6184 718.21 -26.6303C718.15 -26.6407 718.094 -26.67 718.051 -26.7139C718.003 -26.7638 717.979 -26.8413 717.931 -26.9965L717.91 -27.0653Z" fill="white"/>
<path d="M718.728 -27.8043L717.772 -27.5085L718.068 -26.5533L719.023 -26.849L718.728 -27.8043Z" fill="white"/>
<path d="M718.785 -26.7751C718.916 -26.8159 718.99 -26.956 718.949 -27.0879C718.909 -27.2197 718.769 -27.2936 718.637 -27.2527C718.505 -27.2119 718.431 -27.0719 718.472 -26.94C718.513 -26.8081 718.653 -26.7343 718.785 -26.7751Z" fill="black"/>
<path d="M718.728 -27.8043L717.772 -27.5085L718.068 -26.5533L719.023 -26.849L718.728 -27.8043Z" fill="white"/>
<path d="M719.235 -26.8709C719.52 -26.9593 719.68 -27.2627 719.592 -27.5485C719.503 -27.8343 719.2 -27.9942 718.914 -27.9057C718.628 -27.8172 718.469 -27.5138 718.557 -27.2281C718.646 -26.9423 718.949 -26.7824 719.235 -26.8709Z" fill="black"/>
<path d="M718.728 -27.8043L717.772 -27.5085L718.068 -26.5533L719.023 -26.849L718.728 -27.8043Z" fill="url(#paint0_linear_401_608)"/>
<path d="M718.728 -27.8043L717.772 -27.5085L718.068 -26.5533L719.023 -26.849L718.728 -27.8043Z" fill="white"/>
<path d="M718.785 -26.7751C718.916 -26.8159 718.99 -26.956 718.949 -27.0879C718.909 -27.2197 718.769 -27.2936 718.637 -27.2527C718.505 -27.2119 718.431 -27.0719 718.472 -26.94C718.513 -26.8081 718.653 -26.7343 718.785 -26.7751Z" fill="black"/>
<path d="M718.546 -26.7011C718.81 -26.7828 718.957 -27.0629 718.875 -27.3267C718.794 -27.5905 718.514 -27.7381 718.25 -27.6564C717.986 -27.5747 717.839 -27.2947 717.92 -27.0309C718.002 -26.7671 718.282 -26.6195 718.546 -26.7011Z" fill="white"/>
<path d="M718.874 -26.728C719.006 -26.7688 719.08 -26.9089 719.039 -27.0407C718.998 -27.1726 718.858 -27.2465 718.726 -27.2056C718.594 -27.1648 718.52 -27.0247 718.561 -26.8929C718.602 -26.761 718.742 -26.6871 718.874 -26.728Z" fill="black"/>
<path d="M718.546 -26.7011C718.81 -26.7828 718.957 -27.0629 718.875 -27.3267C718.794 -27.5905 718.514 -27.7381 718.25 -27.6564C717.986 -27.5747 717.839 -27.2947 717.92 -27.0309C718.002 -26.7671 718.282 -26.6195 718.546 -26.7011Z" fill="white"/>
<path d="M718.838 -27.689C718.803 -27.802 718.683 -27.8653 718.57 -27.8303C718.457 -27.7953 718.394 -27.6753 718.429 -27.5622C718.464 -27.4492 718.584 -27.3859 718.697 -27.4209C718.81 -27.4559 718.873 -27.5759 718.838 -27.689Z" fill="black"/>
<path d="M718.546 -26.7011C718.81 -26.7828 718.957 -27.0629 718.875 -27.3267C718.794 -27.5905 718.514 -27.7381 718.25 -27.6564C717.986 -27.5747 717.839 -27.2947 717.92 -27.0309C718.002 -26.7671 718.282 -26.6195 718.546 -26.7011Z" fill="white"/>
<path d="M718.57 -27.8303L718.468 -27.7986C718.355 -27.7636 718.291 -27.6436 718.326 -27.5305C718.361 -27.4175 718.481 -27.3542 718.594 -27.3892L718.697 -27.4209C718.81 -27.4559 718.873 -27.5759 718.838 -27.689C718.803 -27.802 718.683 -27.8653 718.57 -27.8303Z" fill="black"/>
<path d="M718.546 -26.7011C718.81 -26.7828 718.957 -27.0629 718.875 -27.3267C718.794 -27.5905 718.514 -27.7381 718.25 -27.6564C717.986 -27.5747 717.839 -27.2947 717.92 -27.0309C718.002 -26.7671 718.282 -26.6195 718.546 -26.7011Z" fill="white"/>
<path d="M718.57 -27.8303L718.348 -27.7616C718.235 -27.7266 718.172 -27.6066 718.207 -27.4935C718.242 -27.3805 718.362 -27.3172 718.475 -27.3522L718.697 -27.4209C718.81 -27.4559 718.873 -27.5759 718.838 -27.689C718.803 -27.802 718.683 -27.8653 718.57 -27.8303Z" fill="black"/>
<path d="M718.546 -26.7011C718.81 -26.7828 718.957 -27.0629 718.875 -27.3267C718.794 -27.5905 718.514 -27.7381 718.25 -27.6564C717.986 -27.5747 717.839 -27.2947 717.92 -27.0309C718.002 -26.7671 718.282 -26.6195 718.546 -26.7011Z" fill="white"/>
<path d="M718.546 -26.7011C718.81 -26.7828 718.957 -27.0629 718.875 -27.3267C718.794 -27.5905 718.514 -27.7381 718.25 -27.6564C717.986 -27.5747 717.839 -27.2947 717.92 -27.0309C718.002 -26.7671 718.282 -26.6195 718.546 -26.7011Z" fill="white"/>
<path d="M718.881 -26.6742C719.046 -26.7252 719.138 -26.9003 719.087 -27.0651C719.036 -27.23 718.861 -27.3223 718.696 -27.2712C718.531 -27.2202 718.439 -27.0451 718.49 -26.8803C718.541 -26.7154 718.716 -26.6231 718.881 -26.6742Z" fill="black"/>
<path d="M718.546 -26.7011C718.81 -26.7828 718.957 -27.0629 718.875 -27.3267C718.794 -27.5905 718.514 -27.7381 718.25 -27.6564C717.986 -27.5747 717.839 -27.2947 717.92 -27.0309C718.002 -26.7671 718.282 -26.6195 718.546 -26.7011Z" fill="white"/>
<path d="M718.784 -27.4947L718.498 -27.4059C718.412 -27.3794 718.364 -27.2884 718.39 -27.2027L718.535 -26.737C718.561 -26.6512 718.652 -26.6033 718.738 -26.6298L719.025 -26.7186C719.11 -26.7451 719.158 -26.8361 719.132 -26.9218L718.987 -27.3875C718.961 -27.4732 718.87 -27.5212 718.784 -27.4947Z" fill="black"/>
<path d="M718.546 -26.7011C718.81 -26.7828 718.957 -27.0629 718.875 -27.3267C718.794 -27.5905 718.514 -27.7381 718.25 -27.6564C717.986 -27.5747 717.839 -27.2947 717.92 -27.0309C718.002 -26.7671 718.282 -26.6195 718.546 -26.7011Z" fill="white"/>
<path d="M718.965 -27.3544L718.428 -27.188C718.263 -27.137 718.171 -26.9619 718.222 -26.7971C718.273 -26.6322 718.448 -26.5399 718.613 -26.591L719.15 -26.7574C719.315 -26.8084 719.407 -26.9835 719.356 -27.1483C719.305 -27.3132 719.13 -27.4055 718.965 -27.3544Z" fill="black"/>
<path d="M718.546 -26.7011C718.81 -26.7828 718.957 -27.0629 718.875 -27.3267C718.794 -27.5905 718.514 -27.7381 718.25 -27.6564C717.986 -27.5747 717.839 -27.2947 717.92 -27.0309C718.002 -26.7671 718.282 -26.6195 718.546 -26.7011Z" fill="white"/>
<path d="M718.901 -26.6803C719.055 -26.728 719.141 -26.8914 719.093 -27.0452C719.046 -27.1991 718.882 -27.2852 718.729 -27.2376C718.575 -27.1899 718.489 -27.0266 718.536 -26.8727C718.584 -26.7188 718.747 -26.6327 718.901 -26.6803Z" fill="black"/>
<path d="M718.546 -26.7011C718.81 -26.7828 718.957 -27.0629 718.875 -27.3267C718.794 -27.5905 718.514 -27.7381 718.25 -27.6564C717.986 -27.5747 717.839 -27.2947 717.92 -27.0309C718.002 -26.7671 718.282 -26.6195 718.546 -26.7011Z" fill="white"/>
<path d="M718.815 -27.4387L718.544 -27.3549C718.465 -27.3304 718.421 -27.2464 718.445 -27.1672L718.578 -26.7374C718.603 -26.6582 718.687 -26.6139 718.766 -26.6384L719.036 -26.7222C719.116 -26.7467 719.16 -26.8308 719.135 -26.9099L719.002 -27.3398C718.978 -27.4189 718.894 -27.4632 718.815 -27.4387Z" fill="black"/>
<path d="M718.546 -26.7011C718.81 -26.7828 718.957 -27.0629 718.875 -27.3267C718.794 -27.5905 718.514 -27.7381 718.25 -27.6564C717.986 -27.5747 717.839 -27.2947 717.92 -27.0309C718.002 -26.7671 718.282 -26.6195 718.546 -26.7011Z" fill="white"/>
<path d="M718.967 -27.3115L718.49 -27.1636C718.336 -27.116 718.25 -26.9526 718.297 -26.7987C718.345 -26.6449 718.508 -26.5587 718.662 -26.6064L719.14 -26.7543C719.294 -26.8019 719.38 -26.9653 719.332 -27.1192C719.285 -27.2731 719.121 -27.3592 718.967 -27.3115Z" fill="black"/>
<path d="M718.546 -26.7011C718.81 -26.7828 718.957 -27.0629 718.875 -27.3267C718.794 -27.5905 718.514 -27.7381 718.25 -27.6564C717.986 -27.5747 717.839 -27.2947 717.92 -27.0309C718.002 -26.7671 718.282 -26.6195 718.546 -26.7011Z" fill="white"/>
<path d="M718.902 -26.7133C719.034 -26.7541 719.108 -26.8941 719.067 -27.026C719.026 -27.1579 718.886 -27.2317 718.754 -27.1909C718.622 -27.1501 718.548 -27.01 718.589 -26.8781C718.63 -26.7462 718.77 -26.6724 718.902 -26.7133Z" fill="black"/>
<path d="M718.546 -26.7011C718.81 -26.7828 718.957 -27.0629 718.875 -27.3267C718.794 -27.5905 718.514 -27.7381 718.25 -27.6564C717.986 -27.5747 717.839 -27.2947 717.92 -27.0309C718.002 -26.7671 718.282 -26.6195 718.546 -26.7011Z" fill="white"/>
<path d="M718.821 -27.3753L718.594 -27.305C718.525 -27.2836 718.486 -27.2101 718.508 -27.1408L718.624 -26.7647C718.646 -26.6955 718.719 -26.6567 718.788 -26.6781L719.015 -26.7484C719.085 -26.7698 719.123 -26.8434 719.102 -26.9126L718.985 -27.2887C718.964 -27.358 718.89 -27.3967 718.821 -27.3753Z" fill="black"/>
<path d="M718.546 -26.7011C718.81 -26.7828 718.957 -27.0629 718.875 -27.3267C718.794 -27.5905 718.514 -27.7381 718.25 -27.6564C717.986 -27.5747 717.839 -27.2947 717.92 -27.0309C718.002 -26.7671 718.282 -26.6195 718.546 -26.7011Z" fill="white"/>
<path d="M718.978 -27.2602L718.53 -27.1216C718.398 -27.0807 718.324 -26.9407 718.365 -26.8088C718.406 -26.6769 718.546 -26.6031 718.678 -26.6439L719.126 -26.7826C719.258 -26.8234 719.331 -26.9635 719.291 -27.0954C719.25 -27.2273 719.11 -27.3011 718.978 -27.2602Z" fill="black"/>
<path d="M718.546 -26.7011C718.81 -26.7828 718.957 -27.0629 718.875 -27.3267C718.794 -27.5905 718.514 -27.7381 718.25 -27.6564C717.986 -27.5747 717.839 -27.2947 717.92 -27.0309C718.002 -26.7671 718.282 -26.6195 718.546 -26.7011Z" fill="white"/>
<path d="M718.91 -26.7091C719.042 -26.75 719.115 -26.89 719.074 -27.0219C719.034 -27.1538 718.894 -27.2276 718.762 -27.1868C718.63 -27.1459 718.556 -27.0059 718.597 -26.874C718.638 -26.7421 718.778 -26.6683 718.91 -26.7091Z" fill="black"/>
<path d="M718.546 -26.7011C718.81 -26.7828 718.957 -27.0629 718.875 -27.3267C718.794 -27.5905 718.514 -27.7381 718.25 -27.6564C717.986 -27.5747 717.839 -27.2947 717.92 -27.0309C718.002 -26.7671 718.282 -26.6195 718.546 -26.7011Z" fill="white"/>
<path d="M718.832 -27.3656L718.603 -27.2946C718.534 -27.2733 718.496 -27.2005 718.517 -27.1319L718.632 -26.7594C718.654 -26.6908 718.726 -26.6524 718.795 -26.6736L719.024 -26.7446C719.093 -26.7659 719.131 -26.8387 719.11 -26.9073L718.995 -27.2798C718.973 -27.3484 718.901 -27.3868 718.832 -27.3656Z" fill="black"/>
<path d="M718.546 -26.7011C718.81 -26.7828 718.957 -27.0629 718.875 -27.3267C718.794 -27.5905 718.514 -27.7381 718.25 -27.6564C717.986 -27.5747 717.839 -27.2947 717.92 -27.0309C718.002 -26.7671 718.282 -26.6195 718.546 -26.7011Z" fill="white"/>
<path d="M718.977 -27.2533L718.547 -27.1202C718.415 -27.0794 718.341 -26.9393 718.382 -26.8075C718.423 -26.6756 718.563 -26.6018 718.695 -26.6426L719.125 -26.7757C719.256 -26.8165 719.33 -26.9566 719.289 -27.0885C719.249 -27.2204 719.109 -27.2942 718.977 -27.2533Z" fill="black"/>
<path d="M718.546 -26.7011C718.81 -26.7828 718.957 -27.0629 718.875 -27.3267C718.794 -27.5905 718.514 -27.7381 718.25 -27.6564C717.986 -27.5747 717.839 -27.2947 717.92 -27.0309C718.002 -26.7671 718.282 -26.6195 718.546 -26.7011Z" fill="white"/>
<path d="M718.887 -26.7808C718.98 -26.8094 719.031 -26.9074 719.003 -26.9997C718.974 -27.0921 718.876 -27.1437 718.784 -27.1151C718.692 -27.0865 718.64 -26.9885 718.669 -26.8962C718.697 -26.8039 718.795 -26.7522 718.887 -26.7808Z" fill="black"/>
<path d="M718.546 -26.7011C718.81 -26.7828 718.957 -27.0629 718.875 -27.3267C718.794 -27.5905 718.514 -27.7381 718.25 -27.6564C717.986 -27.5747 717.839 -27.2947 717.92 -27.0309C718.002 -26.7671 718.282 -26.6195 718.546 -26.7011Z" fill="white"/>
<path d="M718.836 -27.2358L718.673 -27.1855C718.626 -27.1708 718.599 -27.1204 718.614 -27.0729L718.694 -26.815C718.708 -26.7675 718.759 -26.741 718.806 -26.7557L718.969 -26.8059C719.016 -26.8206 719.043 -26.8711 719.028 -26.9185L718.948 -27.1765C718.933 -27.2239 718.883 -27.2505 718.836 -27.2358Z" fill="black"/>
<path d="M718.546 -26.7011C718.81 -26.7828 718.957 -27.0629 718.875 -27.3267C718.794 -27.5905 718.514 -27.7381 718.25 -27.6564C717.986 -27.5747 717.839 -27.2947 717.92 -27.0309C718.002 -26.7671 718.282 -26.6195 718.546 -26.7011Z" fill="white"/>
<path d="M718.927 -27.1595L718.641 -27.0708C718.548 -27.0422 718.497 -26.9442 718.525 -26.8518C718.554 -26.7595 718.652 -26.7078 718.744 -26.7364L719.031 -26.8252C719.123 -26.8538 719.175 -26.9518 719.146 -27.0441C719.118 -27.1364 719.02 -27.1881 718.927 -27.1595Z" fill="black"/>
<path d="M718.546 -26.7011C718.81 -26.7828 718.957 -27.0629 718.875 -27.3267C718.794 -27.5905 718.514 -27.7381 718.25 -27.6564C717.986 -27.5747 717.839 -27.2947 717.92 -27.0309C718.002 -26.7671 718.282 -26.6195 718.546 -26.7011Z" fill="white"/>
<path d="M718.864 -26.7997C718.952 -26.827 719.001 -26.9203 718.974 -27.0083C718.947 -27.0962 718.853 -27.1454 718.766 -27.1182C718.678 -27.0909 718.628 -26.9976 718.656 -26.9097C718.683 -26.8217 718.776 -26.7725 718.864 -26.7997Z" fill="black"/>
<path d="M718.546 -26.7011C718.81 -26.7828 718.957 -27.0629 718.875 -27.3267C718.794 -27.5905 718.514 -27.7381 718.25 -27.6564C717.986 -27.5747 717.839 -27.2947 717.92 -27.0309C718.002 -26.7671 718.282 -26.6195 718.546 -26.7011Z" fill="white"/>
<path d="M718.812 -27.2374L718.66 -27.19C718.614 -27.1759 718.588 -27.1273 718.602 -27.0816L718.679 -26.8332C718.693 -26.7875 718.742 -26.7619 718.788 -26.7761L718.941 -26.8234C718.986 -26.8376 719.012 -26.8861 718.998 -26.9318L718.921 -27.1802C718.907 -27.2259 718.858 -27.2515 718.812 -27.2374Z" fill="black"/>
<path d="M718.546 -26.7011C718.81 -26.7828 718.957 -27.0629 718.875 -27.3267C718.794 -27.5905 718.514 -27.7381 718.25 -27.6564C717.986 -27.5747 717.839 -27.2947 717.92 -27.0309C718.002 -26.7671 718.282 -26.6195 718.546 -26.7011Z" fill="white"/>
<path d="M718.909 -27.1625L718.622 -27.0738C718.534 -27.0466 718.485 -26.9532 718.512 -26.8653C718.54 -26.7774 718.633 -26.7282 718.721 -26.7554L719.007 -26.8441C719.095 -26.8713 719.145 -26.9647 719.117 -27.0526C719.09 -27.1406 718.997 -27.1898 718.909 -27.1625Z" fill="black"/>
<path d="M718.548 -27.7488L717.951 -27.564C717.853 -27.5333 717.789 -27.455 717.809 -27.3891L718.031 -26.6727C718.052 -26.6067 718.148 -26.5781 718.247 -26.6087L718.844 -26.7936C718.943 -26.8242 719.007 -26.9025 718.986 -26.9684L718.765 -27.6849C718.744 -27.7508 718.647 -27.7795 718.548 -27.7488Z" fill="white"/>
<path d="M718.657 -27.6081L717.941 -27.3863L718.089 -26.9086L718.805 -27.1305L718.657 -27.6081Z" fill="black"/>
<path d="M718.521 -26.7807C718.587 -26.8012 718.629 -26.8534 718.616 -26.8973C718.602 -26.9413 718.538 -26.9604 718.472 -26.94C718.406 -26.9195 718.363 -26.8674 718.377 -26.8234C718.391 -26.7794 718.455 -26.7603 718.521 -26.7807Z" fill="black"/>
<path d="M718.546 -26.7011C718.81 -26.7828 718.957 -27.0629 718.875 -27.3267C718.794 -27.5905 718.514 -27.7381 718.25 -27.6564C717.986 -27.5747 717.839 -27.2947 717.92 -27.0309C718.002 -26.7671 718.282 -26.6195 718.546 -26.7011Z" fill="white"/>
<path d="M718.546 -26.7011C718.81 -26.7828 718.957 -27.0629 718.875 -27.3267C718.794 -27.5905 718.514 -27.7381 718.25 -27.6564C717.986 -27.5747 717.839 -27.2947 717.92 -27.0309C718.002 -26.7671 718.282 -26.6195 718.546 -26.7011Z" fill="white"/>
<path d="M718.196 -26.9854C718.394 -27.0467 718.505 -27.2567 718.443 -27.4546C718.382 -27.6524 718.172 -27.7631 717.974 -27.7019C717.776 -27.6406 717.666 -27.4306 717.727 -27.2327C717.788 -27.0349 717.998 -26.9242 718.196 -26.9854Z" fill="black"/>
<path d="M718.546 -26.7011C718.81 -26.7828 718.957 -27.0629 718.875 -27.3267C718.794 -27.5905 718.514 -27.7381 718.25 -27.6564C717.986 -27.5747 717.839 -27.2947 717.92 -27.0309C718.002 -26.7671 718.282 -26.6195 718.546 -26.7011Z" fill="white"/>
<path d="M718.6 -27.3721L718.122 -27.2242C718.056 -27.2038 718.019 -27.1338 718.04 -27.0679C718.06 -27.0019 718.13 -26.965 718.196 -26.9854L718.674 -27.1333C718.74 -27.1537 718.776 -27.2237 718.756 -27.2897C718.736 -27.3556 718.666 -27.3925 718.6 -27.3721Z" fill="black"/>
<path d="M718.546 -26.7011C718.81 -26.7828 718.957 -27.0629 718.875 -27.3267C718.794 -27.5905 718.514 -27.7381 718.25 -27.6564C717.986 -27.5747 717.839 -27.2947 717.92 -27.0309C718.002 -26.7671 718.282 -26.6195 718.546 -26.7011Z" fill="white"/>
<path d="M718.472 -26.94C718.604 -26.9808 718.677 -27.1208 718.637 -27.2527C718.596 -27.3846 718.456 -27.4584 718.324 -27.4176C718.192 -27.3767 718.118 -27.2367 718.159 -27.1048C718.2 -26.9729 718.34 -26.8991 718.472 -26.94Z" fill="black"/>
<path d="M718.546 -26.7011C718.81 -26.7828 718.957 -27.0629 718.875 -27.3267C718.794 -27.5905 718.514 -27.7381 718.25 -27.6564C717.986 -27.5747 717.839 -27.2947 717.92 -27.0309C718.002 -26.7671 718.282 -26.6195 718.546 -26.7011Z" fill="white"/>
<path d="M718.181 -27.3732L718.668 -27.2625L718.328 -26.8956L718.181 -27.3732Z" fill="black"/>
<path d="M718.537 -27.7451L717.963 -27.5677C717.858 -27.535 717.839 -27.2947 717.92 -27.0309C718.002 -26.7671 718.154 -26.5797 718.259 -26.6124L718.832 -26.7899C718.938 -26.8226 718.957 -27.0629 718.875 -27.3267C718.794 -27.5905 718.642 -27.7778 718.537 -27.7451Z" fill="white"/>
<path d="M718.546 -26.7011C718.81 -26.7828 718.957 -27.0629 718.875 -27.3267C718.794 -27.5905 718.514 -27.7381 718.25 -27.6564C717.986 -27.5747 717.839 -27.2947 717.92 -27.0309C718.002 -26.7671 718.282 -26.6195 718.546 -26.7011Z" fill="white"/>
<path d="M718.895 -26.7569C719 -26.7896 719.059 -26.9016 719.027 -27.0071C718.994 -27.1126 718.882 -27.1717 718.777 -27.139C718.671 -27.1063 718.612 -26.9943 718.645 -26.8888C718.677 -26.7833 718.789 -26.7242 718.895 -26.7569Z" fill="black"/>
<path d="M718.546 -26.7011C718.81 -26.7828 718.957 -27.0629 718.875 -27.3267C718.794 -27.5905 718.514 -27.7381 718.25 -27.6564C717.986 -27.5747 717.839 -27.2947 717.92 -27.0309C718.002 -26.7671 718.282 -26.6195 718.546 -26.7011Z" fill="white"/>
<path d="M718.688 -27.4256C718.793 -27.4582 718.852 -27.5703 718.82 -27.6758C718.787 -27.7813 718.675 -27.8404 718.569 -27.8077C718.464 -27.775 718.405 -27.663 718.438 -27.5575C718.47 -27.452 718.582 -27.3929 718.688 -27.4256Z" fill="black"/>
<path d="M718.546 -26.7011C718.81 -26.7828 718.957 -27.0629 718.875 -27.3267C718.794 -27.5905 718.514 -27.7381 718.25 -27.6564C717.986 -27.5747 717.839 -27.2947 717.92 -27.0309C718.002 -26.7671 718.282 -26.6195 718.546 -26.7011Z" fill="white"/>
<path d="M718.707 -27.1959C718.878 -27.249 718.974 -27.431 718.921 -27.6025C718.868 -27.7739 718.686 -27.8699 718.514 -27.8168C718.343 -27.7637 718.247 -27.5816 718.3 -27.4102C718.353 -27.2387 718.535 -27.1428 718.707 -27.1959Z" fill="black"/>
<path d="M717.849 -27.2593C717.813 -27.3768 717.795 -27.4355 717.82 -27.4833C717.845 -27.5311 717.904 -27.5493 718.022 -27.5857L718.478 -27.7271C718.596 -27.7635 718.655 -27.7817 718.702 -27.7565C718.75 -27.7313 718.768 -27.6726 718.805 -27.5551L718.946 -27.0982C718.983 -26.9808 719.001 -26.922 718.976 -26.8742C718.95 -26.8264 718.892 -26.8083 718.774 -26.7719L718.317 -26.6304C718.2 -26.594 718.141 -26.5759 718.093 -26.6011C718.046 -26.6262 718.027 -26.685 717.991 -26.8024L717.849 -27.2593Z" fill="white"/>
<path d="M718.728 -27.8043L717.772 -27.5085L718.068 -26.5533L719.023 -26.849L718.728 -27.8043Z" fill="white"/>
<path d="M718.91 -26.7091C719.042 -26.75 719.115 -26.89 719.074 -27.0219C719.034 -27.1538 718.894 -27.2276 718.762 -27.1868C718.63 -27.1459 718.556 -27.0059 718.597 -26.874C718.638 -26.7421 718.778 -26.6683 718.91 -26.7091Z" fill="black"/>
<path d="M718.728 -27.8043L717.772 -27.5085L718.068 -26.5533L719.023 -26.849L718.728 -27.8043Z" fill="white"/>
<path d="M719.046 -26.4374C719.31 -26.5191 719.458 -26.7991 719.376 -27.0629C719.294 -27.3267 719.014 -27.4743 718.75 -27.3926C718.487 -27.3109 718.339 -27.0309 718.421 -26.7671C718.502 -26.5033 718.782 -26.3557 719.046 -26.4374Z" fill="black"/>
<path d="M718.728 -27.8043L717.772 -27.5085L718.068 -26.5533L719.023 -26.849L718.728 -27.8043Z" fill="white"/>
<path d="M719.363 -26.8671C719.671 -26.9624 719.843 -27.2891 719.748 -27.5968C719.653 -27.9046 719.326 -28.0768 719.018 -27.9815C718.71 -27.8862 718.538 -27.5595 718.633 -27.2517C718.729 -26.944 719.056 -26.7718 719.363 -26.8671Z" fill="black"/>
<path d="M717.808 -27.3939C717.795 -27.434 717.789 -27.4541 717.788 -27.4706C717.788 -27.4851 717.79 -27.4978 717.794 -27.5067C717.8 -27.5169 717.81 -27.52 717.83 -27.5263L718.67 -27.7865C718.69 -27.7928 718.7 -27.7959 718.71 -27.7904C718.719 -27.7857 718.728 -27.7764 718.736 -27.764C718.744 -27.7498 718.751 -27.7298 718.763 -27.6897L718.861 -27.3744C718.847 -27.3704 718.843 -27.3456 718.852 -27.3193C718.86 -27.2929 718.877 -27.2748 718.89 -27.2789L718.988 -26.9637C719 -26.9235 719.006 -26.9035 719.007 -26.887C719.008 -26.8724 719.006 -26.8598 719.001 -26.8508C718.996 -26.8406 718.986 -26.8375 718.966 -26.8313L718.125 -26.571C718.105 -26.5648 718.095 -26.5617 718.085 -26.5671C718.076 -26.5719 718.068 -26.5812 718.06 -26.5936C718.051 -26.6077 718.045 -26.6278 718.033 -26.6679L717.935 -26.9831C717.948 -26.9872 717.952 -27.0119 717.944 -27.0383C717.936 -27.0647 717.919 -27.0827 717.905 -27.0786L717.808 -27.3939Z" fill="white"/>
</g>
<defs>
<linearGradient id="paint0_linear_401_608" x1="-207" y1="86.1143" x2="-37.5123" y2="633.474" gradientUnits="userSpaceOnUse">
<stop stop-color="white"/>
<stop offset="1"/>
</linearGradient>
</defs>
</svg>
